<svg xmlns="http://www.w3.org/2000/svg" viewBox="0 0 503.03 240.64"><defs><style>.cls-1{fill:#92b7b5;}</style></defs><g id="圖層_2" data-name="圖層 2"><g id="圖層_1-2" data-name="圖層 1"><path id="Path_85" data-name="Path 85" class="cls-1" d="M91.65,211.18C56.19,194.77,23.25,170,6.13,136.34-.28,123.73-2.54,108.2,3.64,95.47,16.32,69.37,52.09,61.61,78.05,57.6c23.1-3.57,46.61-5.33,69.26-11.38,22.46-6,42.56-17.92,63.92-26.8,41.11-17.08,89-27.62,132-11.24C399.87,29.77,571.54,125.3,473.23,196c-41.16,29.6-97.61,35.28-146.62,40.23-61.68,6.23-126.34,7.72-186.8-7.9A285.62,285.62,0,0,1,91.65,211.18Z"/></g></g></svg>