<svg xmlns="http://www.w3.org/2000/svg" viewBox="0 0 12.37 16"><defs><style>.cls-1{fill:#b54f54;}</style></defs><g id="圖層_2" data-name="圖層 2"><g id="圖層_1-2" data-name="圖層 1"><path class="cls-1" d="M8.7,6.3c.24-.21,0-.38-.12-.55-.2.12-.42.24-.24.48A.37.37,0,0,0,8.7,6.3Z"/><path class="cls-1" d="M7.4,7.79c.15-.2,0-.35-.17-.46-.17.14-.37.28-.16.5A.33.33,0,0,0,7.4,7.79Z"/><path class="cls-1" d="M9.61,7.71c.17-.2,0-.36-.16-.49-.18.15-.35.3-.16.52A.33.33,0,0,0,9.61,7.71Z"/><path class="cls-1" d="M8.69,8.47s.25,0,.31,0,.07-.34-.12-.48C8.68,8.11,8.54,8.25,8.69,8.47Z"/><path class="cls-1" d="M3,10.94c0-.08-.11-.14-.18-.21-.07.09-.18.17-.19.26s.1.17.15.25h.11C2.9,11.14,3,11,3,10.94Z"/><path class="cls-1" d="M3,11.48c-.09,0-.14.15-.21.22s.14.15.2.14.16-.09.32-.19C3.18,11.56,3.08,11.46,3,11.48Z"/><path class="cls-1" d="M3.32,11.21c0,.06.1.11.15.17s.16-.11.17-.18-.08-.13-.16-.26C3.4,11.07,3.32,11.14,3.32,11.21Z"/><path class="cls-1" d="M12.17,8.52c-.1-.35-.28-.68-.41-1a10.8,10.8,0,0,0-1.41-2.61c-.32-.45-.69-.86-1-1.31C9.14,3.29,9,3,8.8,2.66,8.42,2.07,8,1.5,7.67.9A2.29,2.29,0,0,0,6.76.06a.55.55,0,0,0-.45,0,3.29,3.29,0,0,0-.76.57,11.23,11.23,0,0,0-.9,1.16c-.8,1.15-1.6,2.3-2.38,3.45-.21.31-.38.65-.56,1-.27.49-.56,1-.79,1.46A17.68,17.68,0,0,0,.24,9.5a4.63,4.63,0,0,0-.15,2.36,4.26,4.26,0,0,0,2,2.73,9.32,9.32,0,0,0,1.91,1,3.08,3.08,0,0,1,.57.17A7.69,7.69,0,0,0,6.4,16a5.26,5.26,0,0,0,1.1-.11,6.54,6.54,0,0,0,2.64-1.27,4.7,4.7,0,0,0,1.65-2c.11-.3.15-.63.27-.93A4.94,4.94,0,0,0,12.17,8.52ZM5.41,2.43l.35-.1-.12-.42L6,2.05l.09-.27.24.13.21-.4.15.42.33-.15,0,.32L7.49,2l-.13.35c.27.15.27.15.1.39l.4.2-.42.19.14.28-.3.06.11.35L7,3.67c0,.25-.14.32-.33.14l-.19.46L6.34,4l-.41-.22-.28.08.08-.32-.26-.07.14-.27L5.26,3C5.46,2.81,5.86,2.75,5.41,2.43ZM3.6,5.79l.93.1c.38,0,.45,0,.5-.4a2.73,2.73,0,0,0,0-.47,3.19,3.19,0,0,1-.46-.3c.13-.32.38-.08.58-.08l0-.09a1.66,1.66,0,0,0-.35-.18c-.29-.09-.6-.16-.71-.5a1.58,1.58,0,0,1,0-.38l.12,0,.15.43.18-.27c.12.24.08.58.48.51l.12-.23.07,0a1,1,0,0,0,.78.9c.12,0,.2.21.3.32A1.2,1.2,0,0,1,6,5.38a.31.31,0,0,0-.26.32,9.7,9.7,0,0,1-.2,1A.39.39,0,0,1,5.35,7C4.89,7.25,5,7.69,5,8.09c0,.16.14.38-.14.47a3,3,0,0,1-.13-.49c0-.22,0-.44,0-.67-.19-.1-.28,0-.29.16s0,.54,0,.81c0,.08-.09.14-.13.21s-.13-.14-.13-.21c0-.33,0-.66,0-1l-.47,0c0,.36,0,.68,0,1,0,.08-.07.17-.1.25-.06-.08-.16-.16-.16-.24,0-.25,0-.51,0-.76s0-.32-.19-.27S3,7.45,3,7.55c0,.25,0,.5,0,.75,0,.09-.09.17-.13.26,0-.08-.14-.15-.15-.23,0-.55-.08-1.11-.1-1.66A.79.79,0,0,1,3.6,5.79Zm2.32,8.33c-.36.09-.72.27-1-.14A.59.59,0,0,1,5.92,14.12Zm-1.56-.64,1,.14C4.75,13.93,4.66,13.92,4.36,13.48Zm1.89,1.28-.8-.37C5.88,14.1,6.09,14.19,6.25,14.76ZM2.69,13.18c-.28.07-.44-.1-.58-.28s-.13-.54.15-1.06H1.5c-.33,0-.47-.25-.58-.49a.75.75,0,0,1,.23-.85.62.62,0,0,1,.75-.11l.42.22c-.24-.46-.46-.86-.11-1.24a.82.82,0,0,1,.9-.29c.39.15.54.45.41,1,.33-.3.59-.6,1-.44a.89.89,0,0,1,.38.34c.27.44.12.74-.52,1.14a5.46,5.46,0,0,1,.39.81.46.46,0,0,1-.12.37c-.19.26-.65.22-1.09-.08A1.1,1.1,0,0,1,2.69,13.18Zm1.78,1.66a1.66,1.66,0,0,1-.26-.49,1.79,1.79,0,0,0-.41-1s0-.09,0-.2a1.94,1.94,0,0,1,.75,1.69Zm.17-.13c0-.22-.07-.43-.1-.65a.47.47,0,0,1,0-.15c.65.22.44.83.7,1.23C4.82,15.15,4.7,15.06,4.64,14.71Zm1.07.45c-.37.08-.59-.24-.54-.82A.69.69,0,0,1,5.71,15.16Zm.21-.07c-.11-.05-.16-.25-.24-.39l.08-.07.54.22,0,.08C6.19,15,6,15.13,5.92,15.09Zm.29-7.24a1.12,1.12,0,0,1,.38-1.27.62.62,0,0,0,.17-.28A1.64,1.64,0,0,1,8.93,5a1.11,1.11,0,0,1,.73,1,.56.56,0,0,0,.15.34,1.42,1.42,0,0,1,.15,2,1.6,1.6,0,0,1-1.21.71c-.06,0-.17.12-.2.21a1,1,0,0,0,0,.34c0,.2,0,.3-.26.3S8,9.8,8.06,9.63a.85.85,0,0,0,0-.16.66.66,0,0,0-.72-.72C6.81,8.77,6.44,8.48,6.21,7.85Zm.86,3.63c.5-.66.82-.67,1.49-.05a6.72,6.72,0,0,0-.85.53,6.93,6.93,0,0,0-.64.81C6.66,12.5,6.67,12,7.07,11.48Zm.79.81L8,12.14,9,12.33l-.71.94Zm.19.93s-.68-.24-.77-.28l0,0a.06.06,0,0,1,0,0,1.83,1.83,0,0,1,.36-.58S8,13.13,8.05,13.22Zm0-1.27c.61-.44.79-.4.93.19Zm.17,2.24A1.67,1.67,0,0,1,6.92,13a6.72,6.72,0,0,0,1.13.46,6.18,6.18,0,0,0,1.14.05C9.1,14.16,8.92,14.32,8.24,14.19Zm1-1.07c-.12.16-.62.17-.64.09l.54-.71S9.34,13,9.23,13.12Zm.1.65c.13-1.73.08-1.88-1.06-2.85a1.45,1.45,0,0,1,1.59,1A1.46,1.46,0,0,1,9.33,13.77Zm2-4.14a1.66,1.66,0,0,1-.39.32,1.75,1.75,0,0,1-.06.5.38.38,0,0,1-.34.09,1.8,1.8,0,0,1-.35-.38,1.16,1.16,0,0,1-.49,0c-.09,0-.18-.32-.12-.39A1.65,1.65,0,0,1,10,9.46a2,2,0,0,1,.11-.54.39.39,0,0,1,.37-.11,1.29,1.29,0,0,1,.28.42,1.73,1.73,0,0,1,.5,0C11.3,9.3,11.34,9.56,11.29,9.63Z"/></g></g></svg>