<svg xmlns="http://www.w3.org/2000/svg" viewBox="0 0 509.82 103.33"><defs><style>.cls-1,.cls-2{fill:#b54f54;}.cls-2{stroke:#b54f54;stroke-miterlimit:10;stroke-width:0.59px;}</style></defs><g id="圖層_2" data-name="圖層 2"><g id="圖層_1-2" data-name="圖層 1"><path class="cls-1" d="M56.2,40.69c1.51-1.39.06-2.43-.8-3.58-1.28.81-2.69,1.57-1.55,3.15A2.45,2.45,0,0,0,56.2,40.69Z"/><path class="cls-1" d="M47.76,50.33c1-1.34.06-2.25-1.08-3-1.06.9-2.39,1.76-1,3.21A2.17,2.17,0,0,0,47.76,50.33Z"/><path class="cls-1" d="M62.08,49.82c1.06-1.35.11-2.33-1-3.21-1.17,1-2.28,2-1,3.37A2.12,2.12,0,0,0,62.08,49.82Z"/><path class="cls-1" d="M56.11,54.69a2.07,2.07,0,0,0,2,0c1.11-1.15.47-2.18-.78-3.1C56.05,52.35,55.16,53.3,56.11,54.69Z"/><path class="cls-1" d="M19.21,70.62c0-.47-.77-.89-1.19-1.33-.44.56-1.16,1.08-1.24,1.69s.64,1.09,1,1.63l.72,0A5.24,5.24,0,0,0,19.21,70.62Z"/><path class="cls-1" d="M19.54,74.14c-.55.22-.89.94-1.32,1.45.42.32.89.94,1.27.89.56-.06,1.07-.61,2.08-1.25C20.52,74.64,19.88,74,19.54,74.14Z"/><path class="cls-1" d="M21.46,72.39c0,.37.6.73.94,1.1.4-.37,1-.7,1.12-1.13s-.5-.87-1-1.69C22,71.5,21.45,72,21.46,72.39Z"/><path class="cls-1" d="M78.58,55c-.64-2.26-1.81-4.36-2.62-6.58a70.25,70.25,0,0,0-9.14-16.81c-2.07-2.91-4.44-5.61-6.5-8.52-1.32-1.86-2.29-4-3.51-5.9-2.41-3.81-5-7.51-7.29-11.39A14.67,14.67,0,0,0,43.66.38,3.46,3.46,0,0,0,40.78.26a19.88,19.88,0,0,0-5,3.68A72.89,72.89,0,0,0,30,11.45Q22.26,22.54,14.65,33.73c-1.36,2-2.44,4.2-3.61,6.32C9.31,43.18,7.4,46.22,6,49.47A99.58,99.58,0,0,0,1.55,61.38a30.39,30.39,0,0,0-1,15.24,27.37,27.37,0,0,0,13,17.58c3.95,2.41,8,4.91,12.33,6.38,1.11,0,2.63.81,3.73,1.08a49.17,49.17,0,0,0,11.71,1.67,32.69,32.69,0,0,0,7.14-.74,41.94,41.94,0,0,0,17-8.14c4.55-3.6,8.56-7.65,10.65-13.2.74-2,1-4.08,1.72-6A31.39,31.39,0,0,0,78.58,55ZM34.93,15.67l2.26-.6c-.24-.82-.45-1.56-.79-2.75l2.56.94.53-1.78,1.58.86c.4-.74.78-1.46,1.37-2.57l1,2.72,2.08-1c.11.77.2,1.38.3,2.11l2.59-.87c-.37,1-.61,1.61-.86,2.24,1.73,1,1.73,1,.67,2.53l2.55,1.29L48.06,20c.28.57.57,1.12.92,1.81L47,22.25c.19.61.37,1.21.68,2.24l-2.5-.77c-.19,1.59-.91,2-2.13.88l-1.21,3c-.52-1.2-.82-1.89-.9-2.09L38.3,24.07l-1.79.54L37,22.55l-1.66-.47.87-1.75L34,19C35.28,18.15,37.83,17.75,34.93,15.67ZM23.23,37.42c2,.15,4,.42,6.05.6,2.43.21,2.85-.1,3.2-2.53a27.55,27.55,0,0,0,.16-3.08c-1.36-.87-3-1.76-3-1.94.83-2.07,2.42-.53,3.74-.48l.29-.58a11.87,11.87,0,0,0-2.23-1.22c-1.92-.56-3.88-1-4.62-3.18a10.77,10.77,0,0,1-.24-2.5l.75-.12,1,2.77c.43-.59.74-1,1.2-1.69.75,1.49.47,3.69,3.07,3.29l.8-1.48c.22.06.45.09.45.13.11,3.3,2.14,4.83,5,5.81.79.27,1.3,1.35,1.94,2.05a9.11,9.11,0,0,1-2.36,1.5c-1.19.32-1.54.83-1.68,2.06a60.44,60.44,0,0,1-1.31,6.75,2.5,2.5,0,0,1-.93,1.52c-2.93,1.7-2.17,4.55-2.44,7.13-.11,1,.9,2.5-.91,3.05a21.23,21.23,0,0,1-.82-3.18c-.14-1.4,0-2.83,0-4.3-1.21-.64-1.8-.26-1.85,1-.07,1.76,0,3.53-.18,5.28,0,.46-.56.88-.86,1.32-.3-.45-.83-.88-.85-1.34-.09-2.15,0-4.31,0-6.64l-3.07-.33c0,2.28.05,4.36,0,6.43a5.36,5.36,0,0,1-.67,1.65c-.36-.54-1-1-1.05-1.61-.17-1.6-.06-3.24-.17-4.86-.06-.79.15-2.05-1.22-1.79-.39.08-.82,1.18-.83,1.82-.05,1.62.21,3.24.17,4.86,0,.57-.54,1.12-.83,1.68-.32-.5-.89-1-.93-1.5-.28-3.57-.53-7.14-.65-10.72C17.13,39.31,19.47,37.14,23.23,37.42Zm15,53.79c-2.33.57-4.66,1.74-6.49-1C34.1,88.13,36.75,88.47,38.26,91.21ZM28.14,87l6.8,1C30.64,90,30.07,89.92,28.14,87Zm12.24,8.26-5.19-2.35C38,91.07,39.33,91.66,40.38,95.29Zm-23-10.15c-1.78.44-2.81-.67-3.74-1.85-1.19-1.5-.87-3.46,1-6.81H9.68c-2.14,0-3-1.6-3.75-3.19a4.92,4.92,0,0,1,1.48-5.5,4,4,0,0,1,4.86-.7L15,68.53c-1.51-3-3-5.54-.69-8,1.5-1.59,3.45-2.82,5.82-1.89s3.44,2.9,2.62,6.21C24.88,62.92,26.53,61,29.06,62a5.58,5.58,0,0,1,2.47,2.2c1.75,2.87.74,4.82-3.34,7.37a45.52,45.52,0,0,1,2.51,5.24,3.21,3.21,0,0,1-.78,2.41c-1.24,1.63-4.22,1.42-7.07-.53C22.27,82,20.66,84.32,17.37,85.14Zm11.5,10.68a11.74,11.74,0,0,1-1.71-3.13c-.49-2.43-.59-4.93-2.61-6.77-.15-.14,0-.59,0-1.32,4.21,2.82,4.55,6.85,4.88,10.88ZM30,95c-.25-1.39-.45-2.79-.65-4.18a4.29,4.29,0,0,1,.14-1c4.18,1.39,2.86,5.35,4.55,8C31.15,97.85,30.38,97.29,30,95Zm6.92,2.89c-2.42.54-3.79-1.51-3.52-5.25C36.24,93.71,37,94.79,36.88,97.88Zm1.37-.44c-.74-.31-1.06-1.61-1.55-2.48l.52-.49,3.47,1.41.17.53C40,96.8,38.86,97.7,38.25,97.44Zm1.84-46.75a7.28,7.28,0,0,1,2.45-8.19,3.59,3.59,0,0,0,1.09-1.82C45.17,34,51,30.5,57.7,32.5c2.74.82,4.18,3.26,4.69,6.15a4.08,4.08,0,0,0,1,2.26,9.14,9.14,0,0,1,1,13.1c-2.06,2.25-4.22,4.65-7.8,4.56-.43,0-1.1.81-1.29,1.37a5.62,5.62,0,0,0-.09,2.21c.08,1.24-.3,1.89-1.69,1.89S52,63.27,52.07,62.2a8.49,8.49,0,0,0,0-1c0-2.94-1.85-4.76-4.69-4.66C44,56.65,41.61,54.76,40.09,50.69Zm5.55,23.44c3.26-4.25,5.32-4.32,9.67-.31a35.56,35.56,0,0,0-5.52,3.44c-1.57,1.4-2.67,3.34-4.11,5.23C43,80.7,43.08,77.46,45.64,74.13Zm5.09,5.25.77-1,6.82,1.23-4.57,6Zm1.29,6c0-.21-4.44-1.55-5-1.82a.32.32,0,0,1-.18-.14.28.28,0,0,1,0-.23,12.76,12.76,0,0,1,2.31-3.74S51.91,84.79,52,85.38Zm.1-8.21c3.91-2.82,5.12-2.58,6,1.25ZM53.2,91.66c-4.27-.76-6.9-3.47-8.5-8,2.68,1.15,4.9,2.48,7.27,3s4.92.22,7.36.28C58.78,91.44,57.58,92.45,53.2,91.66Zm6.39-6.91c-.75,1-4,1.06-4.14.58L59,80.74S60.35,83.77,59.59,84.75Zm.67,4.19c.85-11.21.5-12.14-6.86-18.44,4.59-.61,8.59,2,10.31,6.65S64.14,86.32,60.26,88.94ZM72.89,62.21a10.6,10.6,0,0,1-2.51,2.07A11.19,11.19,0,0,1,70,67.5a2.33,2.33,0,0,1-2.22.56,11.3,11.3,0,0,1-2.22-2.47c-1,.06-2.23.48-3.17.09a2.74,2.74,0,0,1-.82-2.52,10.28,10.28,0,0,1,2.85-2.06,11.6,11.6,0,0,1,.76-3.5,2.54,2.54,0,0,1,2.39-.7,9.09,9.09,0,0,1,1.8,2.71,11.43,11.43,0,0,1,3.23.32C73,60.06,73.23,61.71,72.89,62.21Z"/><path class="cls-2" d="M119,69.4c-.75.5-1.55,1-2.39,1.48a22,22,0,0,1-2.62,1.3,18.77,18.77,0,0,1-2.74.92,11.11,11.11,0,0,1-2.81.36,4.08,4.08,0,0,1-2.72-.88,6.48,6.48,0,0,1-1.67-2.18,14.32,14.32,0,0,1-1-2.78c-.25-1-.52-1.9-.79-2.71a2.14,2.14,0,0,0-.46-.79l-.61-.59a3.28,3.28,0,0,1-.55-.67,1.77,1.77,0,0,1-.23-.92,1,1,0,0,1,.48-.77,1.52,1.52,0,0,1,.82-.36,1,1,0,0,1,.73.34c.24.22.53.46.86.73a7,7,0,0,0,1.13.71,3.25,3.25,0,0,0,1.47.31c.36,0,.78,0,1.26,0a4.17,4.17,0,0,0,1.21-.18c.25-.12.39-.21.42-.28a.32.32,0,0,0,0-.19.11.11,0,0,1,.06-.12,1.88,1.88,0,0,1,.55,0,5.75,5.75,0,0,1,.77.06,2.45,2.45,0,0,1,.82.25,1.77,1.77,0,0,1,.61.5,1.25,1.25,0,0,1,.23.74c0,.5-.17.81-.51.92a4.64,4.64,0,0,1-1.13.21h-1.09c-.53,0-1.08,0-1.67,0l-1.65.08c-.52,0-.89,0-1.12,0,.12.54.26,1.17.42,1.91a12.16,12.16,0,0,0,.67,2.09,4.9,4.9,0,0,0,1.16,1.68,2.53,2.53,0,0,0,1.82.69A10.41,10.41,0,0,0,111.3,71a14.53,14.53,0,0,0,2.43-.84A22.45,22.45,0,0,0,116,68.94l2.16-1.34a.72.72,0,0,0,.19-.26,1.65,1.65,0,0,0,0-.29,16.14,16.14,0,0,0-.31-3.14,16.79,16.79,0,0,1-.32-3.27c0-.72.06-1.66.17-2.8a37.43,37.43,0,0,1,1.55-7.5A17.26,17.26,0,0,1,121,46.78a9,9,0,0,1,2.2-2.56,4.71,4.71,0,0,1,2.93-1,1.83,1.83,0,0,1,1.24.42,3.21,3.21,0,0,1,.79,1.13,7.2,7.2,0,0,1,.48,1.55,16.5,16.5,0,0,1,.26,1.67c.05.56.08,1.07.08,1.53v1.07a24.75,24.75,0,0,1-.27,3.6,25.81,25.81,0,0,1-.8,3.61,21.17,21.17,0,0,1-1.34,3.41,18.86,18.86,0,0,1-1.9,3.08,11.74,11.74,0,0,1-1.78,1.86A22.08,22.08,0,0,0,121,68a11.69,11.69,0,0,0,1.26,3.12,8.25,8.25,0,0,0,2.22,2.37.65.65,0,0,1,.18.25,1.24,1.24,0,0,1,0,.34.63.63,0,0,1-.23.56,1.13,1.13,0,0,1-.61.15,2.5,2.5,0,0,1-1.15-.23,3.52,3.52,0,0,1-.8-.57,8,8,0,0,1-.69-.73,5.18,5.18,0,0,0-.75-.73Zm1-9v1.22c0,.36,0,.71,0,1s.06.69.09,1.05.07.77.12,1.21c0,.14.07.31.13.51s.1.29.13.29h.16a1.19,1.19,0,0,0,.3-.23l.56-.54.65-.67c.22-.24.41-.44.55-.61a16.06,16.06,0,0,0,3.33-6,24.11,24.11,0,0,0,1-6.89v-.5c0-.25,0-.53,0-.82s0-.57,0-.82v-.5a4.68,4.68,0,0,1-.11-.48,4.14,4.14,0,0,0-.19-.73,7.44,7.44,0,0,1-.2-.74c-.06-.23-.1-.39-.13-.48l-.11-.21a.48.48,0,0,1-.06-.21,3.59,3.59,0,0,0-2.18,1,8.76,8.76,0,0,0-1.63,2.28,15,15,0,0,0-1.15,3.06c-.29,1.12-.54,2.22-.73,3.31a28.64,28.64,0,0,0-.4,3.06C120,59,120,59.78,120,60.39Z"/><path class="cls-2" d="M130,69a15,15,0,0,1,1-4.07,14.69,14.69,0,0,1,1.81-3.3,9.28,9.28,0,0,1,2.09-2.14,2,2,0,0,1,1.86-.46l.36-.23a1.84,1.84,0,0,0,.25-.21.74.74,0,0,1,.25-.17,1.25,1.25,0,0,1,.44-.06,1.58,1.58,0,0,1,1.05.38,3.85,3.85,0,0,1,.82.92,4.83,4.83,0,0,1,.54,1.15,3.59,3.59,0,0,1,.19,1.11.76.76,0,0,1-.42.75,2.12,2.12,0,0,1-1,.21,1.22,1.22,0,0,1-.59-.14,1.92,1.92,0,0,1-.44-.36l-.4-.42a1.09,1.09,0,0,0-.54-.29h-.17l-.19.19a.83.83,0,0,0-.19.23c-.58.69-1.13,1.32-1.63,1.86a14.9,14.9,0,0,0-1.32,1.65,7.06,7.06,0,0,0-.88,1.81,7.44,7.44,0,0,0-.31,2.3v.38a4.26,4.26,0,0,0,0,.5c0,.17,0,.33,0,.5v.38a.85.85,0,0,0,.48.63c.27.14.51.28.73.42l.63,0,.59,0a16,16,0,0,0,3.56-.48,31.43,31.43,0,0,0,4.12-1.28,24.53,24.53,0,0,0,3.92-1.91,12.54,12.54,0,0,0,2.93-2.32,3,3,0,0,0,.44-.92c.13-.39.27-.78.42-1.16a5.3,5.3,0,0,1,.52-1,1,1,0,0,1,.88-.42.66.66,0,0,1,.7.44,2.92,2.92,0,0,1,.14.86,4.61,4.61,0,0,1-.65,2.43,8.64,8.64,0,0,1-1.61,2,12.69,12.69,0,0,1-2.12,1.55,24.25,24.25,0,0,1-2.19,1.13c-.2,0-.63.21-1.28.46s-1.36.52-2.12.79l-2.2.82-1.57.61c-.44.14-.82.24-1.13.31l-.84.19a4.76,4.76,0,0,1-.77.11l-.94,0a7,7,0,0,1-2.49-.38,3.66,3.66,0,0,1-1.58-1.11,4.7,4.7,0,0,1-.85-1.8A12.92,12.92,0,0,1,130,69Z"/><path class="cls-2" d="M159.55,65.29c-.06-.11-.15-.27-.28-.48a.51.51,0,0,0-.44-.31,2.53,2.53,0,0,0-1.61.69,11,11,0,0,0-1.55,1.63,13.67,13.67,0,0,0-1.26,1.91,6.7,6.7,0,0,0-.64,1.5,4.23,4.23,0,0,0-.17,1.3,9.32,9.32,0,0,1-.11,1.43,2.44,2.44,0,0,1-.46,1.13,1.46,1.46,0,0,1-1.23.46,1,1,0,0,1-.74-.23,1.3,1.3,0,0,1-.18-.78c.19-1.34.36-2.44.52-3.31s.29-1.62.42-2.28.25-1.3.37-1.93.28-1.38.44-2.28.35-2,.55-3.29.43-3,.71-5c0-.42,0-1,.08-1.78s.17-1.59.32-2.47a25,25,0,0,1,.61-2.68,12.14,12.14,0,0,1,.94-2.45,6.4,6.4,0,0,1,1.32-1.78,2.52,2.52,0,0,1,1.76-.69,1.49,1.49,0,0,1,1.15.48,3.2,3.2,0,0,1,.67,1.15,5.51,5.51,0,0,1,.27,1.4c0,.49,0,.89,0,1.2a11.54,11.54,0,0,1-.16,2c-.12.63-.26,1.25-.42,1.88s-.35,1.26-.55,1.89-.36,1.25-.5,1.86l-2.68,5.11-1.51,3.27.21.46a7.52,7.52,0,0,1,1.8-1.61,4.83,4.83,0,0,1,2.31-.65,1.33,1.33,0,0,1,1.06.37,3.39,3.39,0,0,1,.74,1.07,7.3,7.3,0,0,1,.44,1.32,9.7,9.7,0,0,1,.18,1.09c0,.17,0,.43,0,.8s-.05.78-.08,1.25,0,1-.06,1.49a8.32,8.32,0,0,0,.06,1.44,2.88,2.88,0,0,0,.36,1.16,1,1,0,0,0,.73.56,21.85,21.85,0,0,0,2.91-.56,7.79,7.79,0,0,0,2.24-1,5.63,5.63,0,0,0,1.61-1.65,7.7,7.7,0,0,0,1-2.48,1,1,0,0,1,.83-.41.78.78,0,0,1,.82.46,2.51,2.51,0,0,1,.19,1,4.46,4.46,0,0,1-1.07,3,8.43,8.43,0,0,1-2.7,2.12,16.3,16.3,0,0,1-7,1.72,1.45,1.45,0,0,1-1.39-.69,4.15,4.15,0,0,1-.44-1.68,18.82,18.82,0,0,1,0-2,14.58,14.58,0,0,0,0-1.63c0-.14,0-.37,0-.69s-.06-.67-.1-1-.1-.71-.15-1A4.26,4.26,0,0,1,159.55,65.29Zm-3.44-10.05v.42c0,.19,0,.37,0,.54a3.78,3.78,0,0,1,0,.46v.25l.21.21a2.29,2.29,0,0,0,.78-.88,9.34,9.34,0,0,0,.65-1.5c.19-.59.37-1.21.52-1.87s.29-1.3.4-1.95.2-1.22.27-1.75a10.27,10.27,0,0,0,.1-1.3c0-.11,0-.32,0-.63a1.78,1.78,0,0,0-.06-.54l-.21-.42a5.56,5.56,0,0,0-1.55,1.88,9.34,9.34,0,0,0-.79,2.26,13.68,13.68,0,0,0-.3,2.43C156.12,53.69,156.11,54.49,156.11,55.24Z"/><path class="cls-2" d="M170.91,65.92a5.68,5.68,0,0,1,.25-.75c.14-.37.29-.76.44-1.18s.3-.81.44-1.17l.3-.75a2.19,2.19,0,0,1,.48-.88,1.3,1.3,0,0,1,.86-.21.87.87,0,0,1,.88.46,2.62,2.62,0,0,1,.21,1.09,6,6,0,0,1-.32,2q-.31.9-.69,1.8t-.69,1.92a8.15,8.15,0,0,0-.31,2.37v.48a4.44,4.44,0,0,0,0,.63,1.54,1.54,0,0,0,.17.55.37.37,0,0,0,.33.23,6,6,0,0,0,2.2-.44,19,19,0,0,0,2.18-1,21.22,21.22,0,0,0,2-1.34c.66-.49,1.25-.92,1.78-1.28A2,2,0,0,0,182,68c.1-.14.19-.27.27-.4a1.66,1.66,0,0,1,.32-.33.94.94,0,0,1,.6-.15,1.62,1.62,0,0,1,.9.23.91.91,0,0,1,.36.82c0,.17,0,.32,0,.46a.58.58,0,0,1-.23.38.92.92,0,0,1-.32.33l-.56.44-.55.42a1.43,1.43,0,0,1-.37.23.8.8,0,0,0-.23.11.88.88,0,0,1-.23.1,1.13,1.13,0,0,0-.11.11s-.06.07-.06.1c-.59.45-1.22.9-1.91,1.36a19.84,19.84,0,0,1-2.15,1.26,15.55,15.55,0,0,1-2.33.94,7.81,7.81,0,0,1-2.36.38,2.07,2.07,0,0,1-1.53-.53,3.1,3.1,0,0,1-.78-1.32,6.49,6.49,0,0,1-.29-1.67c0-.59,0-1.12,0-1.59Zm2-11a1.28,1.28,0,0,1,.3-1,1.6,1.6,0,0,1,1-.25,2.27,2.27,0,0,1,.76.14c.25.1.37.33.37.7a1.32,1.32,0,0,1-.52,1,1.56,1.56,0,0,1-1,.46.8.8,0,0,1-.72-.31A1.31,1.31,0,0,1,172.92,54.9Z"/><path class="cls-2" d="M187.56,95.16c-.14-.42-.26-.81-.36-1.18a5.84,5.84,0,0,1-.19-1c0-.32,0-.65-.06-1s0-.7,0-1.15V90c0-.18,0-.35,0-.5s0-.26,0-.31c.31-1.37.65-2.72,1-4a30.91,30.91,0,0,1,1.36-3.86,20.38,20.38,0,0,1,1.93-3.52,15.16,15.16,0,0,1,2.8-3.07c0-.14.07-.42.13-.84s.12-.85.21-1.3.14-.87.19-1.28.07-.7.1-.9,0-.19,0-.4,0-.34,0-.39h-.13c-1,.5-1.91.94-2.8,1.31a7.45,7.45,0,0,1-2.94.57,3.45,3.45,0,0,1-1.48-.29,2.62,2.62,0,0,1-1-.8,3.35,3.35,0,0,1-.56-1.17,6.11,6.11,0,0,1-.23-1.47l1-3.06c.25-.69.57-1.44.94-2.24a18.35,18.35,0,0,1,1.3-2.28,11.93,11.93,0,0,1,1.7-2,5.69,5.69,0,0,1,2.18-1.28,8,8,0,0,1,3,.09,8.35,8.35,0,0,1,2.45,1,7.09,7.09,0,0,1,1.7,1.36,3.34,3.34,0,0,1,.78,1.28,5.54,5.54,0,0,1-.38,1.32c-.2.46-.41.92-.65,1.38s-.48.88-.71,1.26a9.41,9.41,0,0,0-.53.94,14.15,14.15,0,0,0-.58,1.59c-.17.56-.32,1.13-.44,1.72a17.87,17.87,0,0,0-.3,1.78,14.25,14.25,0,0,0-.1,1.65v.63a20,20,0,0,1,4.61-2,17.76,17.76,0,0,1,4.9-.71h.77a3.93,3.93,0,0,1,.92.11,1.88,1.88,0,0,1,.78.37,1,1,0,0,1,.33.78c0,.53-.29.79-.88.79l-.58-.06a2,2,0,0,1-.63-.15l-1,.17c-.47.09-1,.18-1.55.3l-1.54.33c-.48.11-.82.18-1,.21l-.48.19-.78.31-.81.32a1.56,1.56,0,0,0-.53.27,4,4,0,0,0-.77.31l-.86.46-.73.42a1.26,1.26,0,0,0-.32.23l-.42.59-1,10.6a15.65,15.65,0,0,1-.61,2.63,15.39,15.39,0,0,1-1.28,3,8.9,8.9,0,0,1-1.94,2.41,4,4,0,0,1-2.62,1,2.37,2.37,0,0,1-.74-.1A1.35,1.35,0,0,1,187.56,95.16Zm.42-26.6a1.85,1.85,0,0,0,.35.59.87.87,0,0,0,.65.25,6.38,6.38,0,0,0,3.08-.74,8.84,8.84,0,0,0,2.41-1.9,14.48,14.48,0,0,0,1.82-2.56,21.64,21.64,0,0,0,1.32-2.76v-.17a3.61,3.61,0,0,0-1.53-1.78,2.53,2.53,0,0,0-1.8-.13,5.51,5.51,0,0,0-1.91,1.09,15.18,15.18,0,0,0-1.82,1.85A16.8,16.8,0,0,0,189,64.45a16.08,16.08,0,0,0-1,2.08,5.48,5.48,0,0,0-.42,1.53C187.53,68.45,187.67,68.61,188,68.56Zm1,22.49c0,.25.06.61.11,1.09a3.6,3.6,0,0,0,.27,1.17,2.67,2.67,0,0,0,1.46-1.15A9.89,9.89,0,0,0,192,90.05a22.44,22.44,0,0,0,.75-2.33c.19-.77.32-1.36.38-1.78.11-.64.2-1.25.27-1.82s.13-1.12.19-1.63.09-1,.12-1.53,0-1,0-1.64c0-.08,0-.27,0-.56s0-.48,0-.57a18.23,18.23,0,0,0-1.88,3,24,24,0,0,0-1.28,3.07,30.12,30.12,0,0,0-.88,3.27C189.39,88.64,189.18,89.82,189,91.05Z"/><path class="cls-2" d="M205.71,71.45a2.12,2.12,0,0,1,0-.29l.09-.53c0-.18,0-.35.08-.5a1.81,1.81,0,0,0,0-.31V69.4l.59-2.64c.47-1,1-2,1.48-2.89a11.75,11.75,0,0,1,1.79-2.43,7.88,7.88,0,0,1,2.32-1.68,7.39,7.39,0,0,1,3.2-.63,2.69,2.69,0,0,1,.95.23,10.89,10.89,0,0,1,1.13.57,11.72,11.72,0,0,1,1,.69,5.21,5.21,0,0,1,.74.65,16,16,0,0,1,1.88-.23l1,0a4.45,4.45,0,0,0,.9-.15,11.76,11.76,0,0,0,1.48-.54,4.94,4.94,0,0,1,1.39-.21.81.81,0,0,1,.56.25.78.78,0,0,1,.27.59,1.09,1.09,0,0,1-.29.75,1.27,1.27,0,0,1-.71.42l-5.24,1.17-.46.21a10.35,10.35,0,0,1-1,4.31,12.34,12.34,0,0,1-2.56,3.61,12.15,12.15,0,0,1-3.68,2.45,11,11,0,0,1-4.36.9l-.54,0c-.25,0-.42,0-.51,0a2.22,2.22,0,0,1-1.27-1.39A5.61,5.61,0,0,1,205.71,71.45Zm2.68.84c0,.14.14.21.34.21h.41a7,7,0,0,0,3.1-.78,11.07,11.07,0,0,0,2.87-2,10.7,10.7,0,0,0,2.1-2.81,6.81,6.81,0,0,0,.81-3.16,16.26,16.26,0,0,1-2.68-.23,15.66,15.66,0,0,0-2.59-.23h0L209.23,67a1.9,1.9,0,0,0-.46.79,6,6,0,0,0-.25,1.09c-.06.39-.1.78-.13,1.17s0,.74,0,1v.59A3,3,0,0,0,208.39,72.29Z"/><path class="cls-2" d="M261.49,69.4c-.75.5-1.55,1-2.38,1.48a22.8,22.8,0,0,1-2.62,1.3,18.89,18.89,0,0,1-2.75.92,11,11,0,0,1-2.8.36,4,4,0,0,1-2.72-.88,6.5,6.5,0,0,1-1.68-2.18,15,15,0,0,1-1-2.78c-.25-1-.51-1.9-.79-2.71a2,2,0,0,0-.46-.79l-.61-.59a2.94,2.94,0,0,1-.54-.67,1.68,1.68,0,0,1-.23-.92,1,1,0,0,1,.48-.77,1.46,1.46,0,0,1,.81-.36,1.05,1.05,0,0,1,.74.34c.23.22.52.46.86.73a6.59,6.59,0,0,0,1.13.71,3.2,3.2,0,0,0,1.46.31c.37,0,.78,0,1.26,0a4.17,4.17,0,0,0,1.21-.18c.26-.12.39-.21.42-.28a.26.26,0,0,0,0-.19.1.1,0,0,1,.07-.12,1.75,1.75,0,0,1,.54,0,6,6,0,0,1,.78.06,2.47,2.47,0,0,1,.81.25,1.68,1.68,0,0,1,.61.5,1.25,1.25,0,0,1,.23.74c0,.5-.17.81-.5.92a4.73,4.73,0,0,1-1.13.21h-1.09c-.53,0-1.09,0-1.68,0l-1.65.08c-.52,0-.89,0-1.11,0,.11.54.25,1.17.42,1.91a11.35,11.35,0,0,0,.67,2.09,4.88,4.88,0,0,0,1.15,1.68,2.55,2.55,0,0,0,1.82.69,10.49,10.49,0,0,0,2.56-.31,15.18,15.18,0,0,0,2.43-.84,22.45,22.45,0,0,0,2.28-1.19c.74-.45,1.46-.9,2.15-1.34a.61.61,0,0,0,.19-.26,1,1,0,0,0,0-.29,16.14,16.14,0,0,0-.31-3.14,16.79,16.79,0,0,1-.31-3.27c0-.72.05-1.66.16-2.8s.3-2.36.55-3.63a34.47,34.47,0,0,1,1-3.87,17.81,17.81,0,0,1,1.57-3.56,9.13,9.13,0,0,1,2.2-2.56,4.71,4.71,0,0,1,2.93-1,1.81,1.81,0,0,1,1.24.42,3.23,3.23,0,0,1,.8,1.13,7.2,7.2,0,0,1,.48,1.55c.11.56.19,1.12.25,1.67s.08,1.07.08,1.53v1.07a24.75,24.75,0,0,1-.27,3.6,25.81,25.81,0,0,1-.8,3.61,20.28,20.28,0,0,1-1.34,3.41,18.86,18.86,0,0,1-1.9,3.08,11.31,11.31,0,0,1-1.78,1.86A22.08,22.08,0,0,0,263.5,68a11.69,11.69,0,0,0,1.26,3.12A8.25,8.25,0,0,0,267,73.46a.88.88,0,0,1,.19.25,2.22,2.22,0,0,1,0,.34.63.63,0,0,1-.23.56,1.13,1.13,0,0,1-.61.15,2.53,2.53,0,0,1-1.15-.23,3.76,3.76,0,0,1-.8-.57c-.23-.22-.46-.47-.69-.73a4.71,4.71,0,0,0-.75-.73Zm1-9v1.22c0,.36,0,.71,0,1s.05.69.08,1.05.07.77.13,1.21c0,.14.07.31.12.51s.1.29.13.29h.17a1.54,1.54,0,0,0,.29-.23c.17-.15.36-.33.56-.54l.65-.67c.23-.24.41-.44.55-.61a16.06,16.06,0,0,0,3.33-6,24.11,24.11,0,0,0,1-6.89v-.5c0-.25,0-.53,0-.82s0-.57,0-.82v-.5a3.31,3.31,0,0,1-.1-.48,7.16,7.16,0,0,0-.19-.73,5.52,5.52,0,0,1-.21-.74c-.06-.23-.1-.39-.13-.48a2.17,2.17,0,0,1-.1-.21.52.52,0,0,1-.07-.21,3.57,3.57,0,0,0-2.17,1,8.79,8.79,0,0,0-1.64,2.28,15,15,0,0,0-1.15,3.06c-.29,1.12-.54,2.22-.73,3.31a28.64,28.64,0,0,0-.4,3.06C262.49,59,262.46,59.78,262.46,60.39Z"/><path class="cls-2" d="M272.48,69a14.61,14.61,0,0,1,1-4.07,14.29,14.29,0,0,1,1.8-3.3,9.28,9.28,0,0,1,2.09-2.14,2,2,0,0,1,1.87-.46l.35-.23a1.84,1.84,0,0,0,.25-.21.78.78,0,0,1,.26-.17,1.16,1.16,0,0,1,.43-.06,1.56,1.56,0,0,1,1.05.38,3.85,3.85,0,0,1,.82.92,4.17,4.17,0,0,1,.54,1.15,3.59,3.59,0,0,1,.19,1.11.76.76,0,0,1-.42.75,2.12,2.12,0,0,1-1,.21,1.25,1.25,0,0,1-.59-.14,2.17,2.17,0,0,1-.44-.36c-.12-.14-.26-.28-.39-.42a1.12,1.12,0,0,0-.55-.29h-.17l-.19.19a.76.76,0,0,0-.18.23c-.59.69-1.13,1.32-1.64,1.86a14.9,14.9,0,0,0-1.32,1.65,6.83,6.83,0,0,0-1.19,4.11v.38c0,.16,0,.33,0,.5s0,.33,0,.5v.38a.9.9,0,0,0,.48.63c.27.14.51.28.74.42l.62,0,.59,0a15.93,15.93,0,0,0,3.56-.48,32,32,0,0,0,4.13-1.28,24.85,24.85,0,0,0,3.91-1.91,12.83,12.83,0,0,0,2.94-2.32,3.3,3.3,0,0,0,.43-.92c.13-.39.27-.78.42-1.16a5.31,5.31,0,0,1,.53-1,1,1,0,0,1,.88-.42.65.65,0,0,1,.69.44,2.62,2.62,0,0,1,.14.86,4.69,4.69,0,0,1-.64,2.43,9,9,0,0,1-1.62,2,12.61,12.61,0,0,1-2.11,1.55,24.36,24.36,0,0,1-2.2,1.13c-.2,0-.62.21-1.28.46s-1.36.52-2.11.79l-2.2.82c-.71.27-1.24.47-1.57.61s-.83.24-1.13.31l-.84.19a4.89,4.89,0,0,1-.78.11l-.94,0a7,7,0,0,1-2.49-.38,3.57,3.57,0,0,1-1.57-1.11,4.71,4.71,0,0,1-.86-1.8A13.75,13.75,0,0,1,272.48,69Z"/><path class="cls-2" d="M302,65.29l-.27-.48a.54.54,0,0,0-.44-.31,2.55,2.55,0,0,0-1.62.69,11,11,0,0,0-1.55,1.63,14.52,14.52,0,0,0-1.25,1.91,6.38,6.38,0,0,0-.65,1.5,4.55,4.55,0,0,0-.17,1.3A9.35,9.35,0,0,1,296,73a2.55,2.55,0,0,1-.46,1.13,1.47,1.47,0,0,1-1.24.46.92.92,0,0,1-.73-.23,1.22,1.22,0,0,1-.19-.78c.19-1.34.37-2.44.52-3.31s.3-1.62.42-2.28.25-1.3.38-1.93.27-1.38.44-2.28.35-2,.54-3.29.43-3,.71-5c0-.42,0-1,.09-1.78a24.14,24.14,0,0,1,.31-2.47c.16-.88.36-1.77.61-2.68a12.14,12.14,0,0,1,.94-2.45,6.4,6.4,0,0,1,1.32-1.78,2.52,2.52,0,0,1,1.76-.69,1.49,1.49,0,0,1,1.15.48,3.06,3.06,0,0,1,.67,1.15,4.76,4.76,0,0,1,.27,1.4c0,.49.05.89.05,1.2a11.52,11.52,0,0,1-.17,2c-.11.63-.25,1.25-.42,1.88s-.35,1.26-.54,1.89-.37,1.25-.51,1.86l-2.68,5.11-1.51,3.27.21.46a7.52,7.52,0,0,1,1.8-1.61,4.87,4.87,0,0,1,2.31-.65,1.35,1.35,0,0,1,1.07.37,3.54,3.54,0,0,1,.73,1.07,7.3,7.3,0,0,1,.44,1.32,10.12,10.12,0,0,1,.19,1.09c0,.17,0,.43,0,.8s-.06.78-.09,1.25-.05,1-.06,1.49a9.45,9.45,0,0,0,.06,1.44,3.23,3.23,0,0,0,.36,1.16,1,1,0,0,0,.73.56,21.85,21.85,0,0,0,2.91-.56,7.79,7.79,0,0,0,2.24-1,5.66,5.66,0,0,0,1.62-1.65,7.7,7.7,0,0,0,1-2.48,1,1,0,0,1,.84-.41.77.77,0,0,1,.81.46,2.51,2.51,0,0,1,.19,1,4.41,4.41,0,0,1-1.07,3,8.43,8.43,0,0,1-2.7,2.12,16.3,16.3,0,0,1-7,1.72,1.43,1.43,0,0,1-1.38-.69,4,4,0,0,1-.44-1.68,16.48,16.48,0,0,1,0-2c0-.67,0-1.21,0-1.63,0-.14,0-.37-.05-.69s-.06-.67-.1-1-.09-.71-.15-1A5.75,5.75,0,0,1,302,65.29Zm-3.44-10.05v.42a4.63,4.63,0,0,0,0,.54c0,.17,0,.32,0,.46v.25l.21.21a2.36,2.36,0,0,0,.77-.88,8.53,8.53,0,0,0,.65-1.5c.19-.59.37-1.21.52-1.87s.29-1.3.4-1.95.2-1.22.27-1.75a10.59,10.59,0,0,0,.11-1.3c0-.11,0-.32,0-.63a2,2,0,0,0-.07-.54l-.21-.42a5.68,5.68,0,0,0-1.55,1.88,9.79,9.79,0,0,0-.79,2.26,12.82,12.82,0,0,0-.29,2.43C298.61,53.69,298.59,54.49,298.59,55.24Z"/><path class="cls-2" d="M313.4,65.92a4.46,4.46,0,0,1,.25-.75l.44-1.18c.15-.42.3-.81.44-1.17s.23-.61.29-.75a2.47,2.47,0,0,1,.48-.88,1.3,1.3,0,0,1,.86-.21.86.86,0,0,1,.88.46,2.62,2.62,0,0,1,.21,1.09,6.29,6.29,0,0,1-.31,2c-.21.6-.44,1.2-.7,1.8s-.48,1.24-.69,1.92a8.15,8.15,0,0,0-.31,2.37v.48a4.44,4.44,0,0,0,0,.63,1.54,1.54,0,0,0,.17.55.37.37,0,0,0,.33.23,6,6,0,0,0,2.2-.44,19,19,0,0,0,2.18-1,20.05,20.05,0,0,0,2-1.34c.66-.49,1.25-.92,1.78-1.28a1.79,1.79,0,0,0,.44-.42c.1-.14.19-.27.27-.4a1.66,1.66,0,0,1,.32-.33,1,1,0,0,1,.61-.15,1.67,1.67,0,0,1,.9.23.93.93,0,0,1,.35.82,3.32,3.32,0,0,1,0,.46.54.54,0,0,1-.23.38,1,1,0,0,1-.31.33l-.57.44c-.19.16-.38.3-.54.42a1.62,1.62,0,0,1-.38.23,1,1,0,0,0-.23.11.76.76,0,0,1-.23.1l-.11.11s-.06.07-.06.1c-.58.45-1.22.9-1.9,1.36a21,21,0,0,1-2.16,1.26,15.14,15.14,0,0,1-2.33.94,7.81,7.81,0,0,1-2.36.38,2.07,2.07,0,0,1-1.53-.53,3.1,3.1,0,0,1-.78-1.32,7,7,0,0,1-.29-1.67c0-.59,0-1.12,0-1.59Zm2-11a1.28,1.28,0,0,1,.29-1,1.61,1.61,0,0,1,1.05-.25,2.21,2.21,0,0,1,.75.14.67.67,0,0,1,.38.7,1.34,1.34,0,0,1-.53,1,1.56,1.56,0,0,1-1,.46.78.78,0,0,1-.71-.31A1.31,1.31,0,0,1,315.41,54.9Z"/><path class="cls-2" d="M330,95.16c-.14-.42-.26-.81-.36-1.18a5.77,5.77,0,0,1-.18-1c0-.32-.05-.65-.07-1s0-.7,0-1.15V90c0-.18,0-.35,0-.5a2.24,2.24,0,0,0,0-.31c.31-1.37.65-2.72,1-4a32.61,32.61,0,0,1,1.36-3.86,20.38,20.38,0,0,1,1.93-3.52,15.46,15.46,0,0,1,2.8-3.07c0-.14.07-.42.13-.84s.13-.85.21-1.3.15-.87.19-1.28.07-.7.1-.9,0-.19,0-.4,0-.34,0-.39H337c-1,.5-1.92.94-2.81,1.31a7.4,7.4,0,0,1-2.93.57,3.47,3.47,0,0,1-1.49-.29,2.66,2.66,0,0,1-1-.8,3.36,3.36,0,0,1-.57-1.17,7.3,7.3,0,0,1-.23-1.47l1-3.06c.25-.69.56-1.44.94-2.24a17.16,17.16,0,0,1,1.3-2.28,11.42,11.42,0,0,1,1.69-2,5.69,5.69,0,0,1,2.18-1.28,8.09,8.09,0,0,1,3,.09,8.58,8.58,0,0,1,2.45,1,7,7,0,0,1,1.69,1.36,3.21,3.21,0,0,1,.78,1.28,5.11,5.11,0,0,1-.38,1.32c-.19.46-.41.92-.65,1.38s-.47.88-.71,1.26a7.46,7.46,0,0,0-.52.94,12.44,12.44,0,0,0-.59,1.59c-.17.56-.31,1.13-.44,1.72s-.22,1.18-.29,1.78a14.4,14.4,0,0,0-.11,1.65v.63a20.14,20.14,0,0,1,4.61-2,17.81,17.81,0,0,1,4.9-.71h.78a4,4,0,0,1,.92.11,1.9,1.9,0,0,1,.77.37,1,1,0,0,1,.34.78c0,.53-.3.79-.88.79l-.59-.06a2,2,0,0,1-.63-.15l-1,.17c-.48.09-1,.18-1.55.3l-1.55.33c-.48.11-.81.18-1,.21l-.48.19-.77.31c-.28.12-.56.22-.82.32a1.4,1.4,0,0,0-.52.27,3.81,3.81,0,0,0-.78.31l-.86.46-.73.42c-.21.13-.31.21-.31.23l-.42.59-1,10.6a14.72,14.72,0,0,1-.61,2.63,15.35,15.35,0,0,1-1.27,3A8.75,8.75,0,0,1,334,94.76a4,4,0,0,1-2.62,1,2.3,2.3,0,0,1-.73-.1A1.37,1.37,0,0,1,330,95.16Zm.42-26.6a1.71,1.71,0,0,0,.36.59.85.85,0,0,0,.64.25,6.35,6.35,0,0,0,3.08-.74,8.84,8.84,0,0,0,2.41-1.9,14,14,0,0,0,1.82-2.56,21.64,21.64,0,0,0,1.32-2.76v-.17a3.51,3.51,0,0,0-1.53-1.78,2.53,2.53,0,0,0-1.8-.13,5.48,5.48,0,0,0-1.9,1.09A14.49,14.49,0,0,0,333,62.3a16.47,16.47,0,0,0-2.58,4.23,5.48,5.48,0,0,0-.42,1.53C330,68.45,330.15,68.61,330.46,68.56Zm1,22.49c0,.25.07.61.11,1.09a3.6,3.6,0,0,0,.27,1.17,2.73,2.73,0,0,0,1.47-1.15,10.33,10.33,0,0,0,1.13-2.11,18.49,18.49,0,0,0,.75-2.33,16.9,16.9,0,0,0,.38-1.78c.11-.64.2-1.25.27-1.82S336,83,336,82.49s.1-1,.13-1.53,0-1,0-1.64c0-.08,0-.27,0-.56s0-.48,0-.57a17.65,17.65,0,0,0-1.89,3A24,24,0,0,0,333,84.24a30.12,30.12,0,0,0-.88,3.27C331.88,88.64,331.66,89.82,331.46,91.05Z"/><path class="cls-2" d="M348.19,71.45s0-.13.05-.29.05-.35.08-.53.05-.35.08-.5a1.81,1.81,0,0,0,0-.31V69.4l.59-2.64c.48-1,1-2,1.49-2.89a11.72,11.72,0,0,1,1.78-2.43,7.88,7.88,0,0,1,2.32-1.68,7.41,7.41,0,0,1,3.21-.63,2.7,2.7,0,0,1,.94.23,10,10,0,0,1,1.13.57,10.6,10.6,0,0,1,1.05.69,5.05,5.05,0,0,1,.73.65,16.13,16.13,0,0,1,1.89-.23l1,0a4.45,4.45,0,0,0,.9-.15,11.76,11.76,0,0,0,1.49-.54,4.82,4.82,0,0,1,1.38-.21.85.85,0,0,1,.57.25.78.78,0,0,1,.27.59,1.1,1.1,0,0,1-.3.75,1.27,1.27,0,0,1-.71.42l-5.23,1.17-.46.21a10.52,10.52,0,0,1-1,4.31,12,12,0,0,1-6.24,6.06,11,11,0,0,1-4.36.9l-.54,0-.5,0a2.24,2.24,0,0,1-1.28-1.39A5.61,5.61,0,0,1,348.19,71.45Zm2.68.84c0,.14.14.21.34.21h.42a7,7,0,0,0,3.1-.78,11.42,11.42,0,0,0,2.87-2,10.66,10.66,0,0,0,2.09-2.81,6.71,6.71,0,0,0,.82-3.16,16.07,16.07,0,0,1-2.68-.23,15.78,15.78,0,0,0-2.6-.23h0L351.71,67a2,2,0,0,0-.46.79,7,7,0,0,0-.25,1.09c-.06.39-.1.78-.13,1.17s0,.74,0,1v.59A4,4,0,0,0,350.87,72.29Z"/><path class="cls-2" d="M404,69.4c-.76.5-1.55,1-2.39,1.48a22,22,0,0,1-2.62,1.3,19.18,19.18,0,0,1-2.74.92,11.11,11.11,0,0,1-2.81.36,4.06,4.06,0,0,1-2.72-.88A6.5,6.5,0,0,1,389,70.4a14.3,14.3,0,0,1-1-2.78c-.25-1-.52-1.9-.8-2.71a1.9,1.9,0,0,0-.46-.79c-.19-.2-.4-.39-.61-.59a2.94,2.94,0,0,1-.54-.67,1.77,1.77,0,0,1-.23-.92,1,1,0,0,1,.48-.77,1.46,1.46,0,0,1,.82-.36,1,1,0,0,1,.73.34c.24.22.52.46.86.73a6.59,6.59,0,0,0,1.13.71,3.25,3.25,0,0,0,1.47.31c.36,0,.78,0,1.25,0a4.25,4.25,0,0,0,1.22-.18c.25-.12.39-.21.42-.28a.43.43,0,0,0,0-.19s0-.09.06-.12a1.79,1.79,0,0,1,.54,0,5.77,5.77,0,0,1,.78.06,2.6,2.6,0,0,1,.82.25,1.64,1.64,0,0,1,.6.5,1.19,1.19,0,0,1,.23.74c0,.5-.16.81-.5.92a4.64,4.64,0,0,1-1.13.21h-1.09c-.53,0-1.09,0-1.67,0l-1.66.08c-.52,0-.89,0-1.11,0,.11.54.25,1.17.42,1.91a12.16,12.16,0,0,0,.67,2.09,4.88,4.88,0,0,0,1.15,1.68,2.56,2.56,0,0,0,1.82.69,10.49,10.49,0,0,0,2.56-.31,14.53,14.53,0,0,0,2.43-.84A22.45,22.45,0,0,0,401,68.94l2.16-1.34a.88.88,0,0,0,.19-.26,1.65,1.65,0,0,0,0-.29,16.17,16.17,0,0,0-.32-3.14,16.79,16.79,0,0,1-.31-3.27,27.46,27.46,0,0,1,.17-2.8q.17-1.73.54-3.63a34.56,34.56,0,0,1,1-3.87A16.74,16.74,0,0,1,406,46.78a9,9,0,0,1,2.2-2.56,4.67,4.67,0,0,1,2.93-1,1.8,1.8,0,0,1,1.23.42,3.23,3.23,0,0,1,.8,1.13,7.2,7.2,0,0,1,.48,1.55A16.44,16.44,0,0,1,413.9,48a14.47,14.47,0,0,1,.09,1.53v1.07a24.78,24.78,0,0,1-.28,3.6,25.79,25.79,0,0,1-.79,3.61,22.14,22.14,0,0,1-1.34,3.41,18.91,18.91,0,0,1-1.91,3.08,11.31,11.31,0,0,1-1.78,1.86A22,22,0,0,0,406,68a11.36,11.36,0,0,0,1.25,3.12,8.25,8.25,0,0,0,2.22,2.37.72.72,0,0,1,.19.25,2.22,2.22,0,0,1,0,.34.63.63,0,0,1-.23.56,1.08,1.08,0,0,1-.61.15,2.56,2.56,0,0,1-1.15-.23,3.46,3.46,0,0,1-.79-.57,8,8,0,0,1-.69-.73,5.25,5.25,0,0,0-.76-.73Zm1-9v1.22c0,.36,0,.71,0,1s.06.69.08,1.05.07.77.13,1.21c0,.14.07.31.13.51s.09.29.12.29h.17s.12-.08.29-.23.36-.33.57-.54l.65-.67c.22-.24.4-.44.54-.61a16.06,16.06,0,0,0,3.33-6,23.77,23.77,0,0,0,1-6.89v-.5c0-.25,0-.53,0-.82s0-.57,0-.82v-.5c0-.08-.06-.24-.1-.48a5.25,5.25,0,0,0-.19-.73c-.08-.25-.15-.5-.21-.74s-.1-.39-.12-.48a1.9,1.9,0,0,1-.11-.21.48.48,0,0,1-.06-.21,3.57,3.57,0,0,0-2.18,1,8.76,8.76,0,0,0-1.63,2.28,15,15,0,0,0-1.16,3.06c-.29,1.12-.53,2.22-.73,3.31s-.33,2.11-.4,3.06S404.94,59.78,404.94,60.39Z"/><path class="cls-2" d="M416.52,68.81a2,2,0,0,1-.72.19l-.75,0-.75,0a2.08,2.08,0,0,0-.76.19c-.47,0-.78,0-.92-.11a.5.5,0,0,1-.13-.52,1.89,1.89,0,0,1,.47-.75,3.91,3.91,0,0,1,.85-.72,3.43,3.43,0,0,1,1.05-.41,1.78,1.78,0,0,1,1,0,1.84,1.84,0,0,1,0-1.3,1,1,0,0,1,1-.55,3.68,3.68,0,0,1,.7.07.69.69,0,0,1,.48.35,13.15,13.15,0,0,0,1.67-1.27l2.16-1.85c.74-.63,1.42-1.18,2-1.67a2.87,2.87,0,0,1,1.26-.74l.33,0a1.47,1.47,0,0,1,.44.1,1.68,1.68,0,0,1,.38.19.35.35,0,0,1,.15.31v1.8c-.2.79-.39,1.52-.57,2.2s-.33,1.36-.46,2a16.69,16.69,0,0,0-.27,2c-.06.67-.09,1.39-.09,2.14a5.79,5.79,0,0,0,1.62-.29c.62-.2,1.26-.44,1.9-.72s1.24-.56,1.8-.86,1-.53,1.34-.73a2,2,0,0,0,.38-.29l.63-.52c.22-.19.44-.35.65-.51a3.85,3.85,0,0,0,.4-.31,1.43,1.43,0,0,1,.41-.23,1.94,1.94,0,0,0,.38-.19.34.34,0,0,1,.32.1,3.37,3.37,0,0,1,.27.34,2.25,2.25,0,0,1,.19.38,1.07,1.07,0,0,1,.06.23,1.27,1.27,0,0,1-.34.83,4.49,4.49,0,0,1-.79.78c-.31.24-.62.46-.94.67a4.81,4.81,0,0,0-.74.57l-1.15.54-1.74.8-1.73.79c-.55.25-.93.43-1.16.55a2.63,2.63,0,0,1-.37.1,3.43,3.43,0,0,0-.63.19,4.66,4.66,0,0,1-.65.19,2,2,0,0,0-.4.1,1.06,1.06,0,0,0-.56.42c-.13.2-.26.39-.38.59a2.19,2.19,0,0,1-.46.5,1.17,1.17,0,0,1-.86.13,2.19,2.19,0,0,0-.36-.19,1.67,1.67,0,0,1-.39-.23A19.31,19.31,0,0,1,420.12,73c-.48-.42-.91-.83-1.3-1.24a12.09,12.09,0,0,1-1.11-1.32Zm2.63-1.68.57,1.22a6.86,6.86,0,0,0,.65,1.11,4.34,4.34,0,0,0,.86.9,2.39,2.39,0,0,0,1.19.46c.06-.42.13-.92.21-1.51s.18-1.2.29-1.84.25-1.28.4-1.91a10.69,10.69,0,0,1,.53-1.65h-.42c-.45.31-.87.61-1.26.92l-1.09.82a10.55,10.55,0,0,0-.88.69l-.12.12c-.06.06-.1.09-.13.09a1.37,1.37,0,0,1-.38.29A4.79,4.79,0,0,0,419.15,67.13Zm4.7-3.85c-.09,0-.13.06-.13.19s0,.19.13.19.16-.06.16-.19S424,63.28,423.85,63.28Z"/><path class="cls-2" d="M433.45,67.13l.17-.16c.06-.25.17-.69.34-1.3s.35-1.28.54-2,.39-1.38.57-2,.31-1,.4-1.26a4.92,4.92,0,0,1,.27-.73c.15-.38.33-.79.52-1.24s.39-.89.59-1.34.33-.78.42-1a16.25,16.25,0,0,1,.9-1.55,12.63,12.63,0,0,1,1.38-1.82,11.89,11.89,0,0,1,1.61-1.51,2.64,2.64,0,0,1,1.55-.65.89.89,0,0,1,.61.21,1.29,1.29,0,0,1,.33.48,2.59,2.59,0,0,1,.15.61,4.34,4.34,0,0,1,0,.58,15.74,15.74,0,0,1-.61,4.34,20.47,20.47,0,0,1-1.65,4.13,22.2,22.2,0,0,1-2.49,3.7,27.3,27.3,0,0,1-3,3.12,3.7,3.7,0,0,0-.1.51c-.05.25-.08.43-.11.54v.08a2,2,0,0,0,.44,1.34,2.65,2.65,0,0,0,1.07.74,5.87,5.87,0,0,0,1.4.31,12.85,12.85,0,0,0,1.49.08,2.75,2.75,0,0,0,1.11-.37c.49-.25,1-.54,1.51-.86a16.84,16.84,0,0,1,1.53-.86,2.92,2.92,0,0,1,1.13-.38.71.71,0,0,1,.58.26.91.91,0,0,1,.21.62c0,.42-.32.87-1,1.34a13,13,0,0,1-2.22,1.32,24.87,24.87,0,0,1-2.41,1,5.9,5.9,0,0,1-1.53.42,5.77,5.77,0,0,1-2.34,0,4.89,4.89,0,0,1-1.89-.8,4.82,4.82,0,0,1-1.32-1.38A4.28,4.28,0,0,1,433,70Zm7.92-12.48c-.25,0-.54.21-.86.61a11.73,11.73,0,0,0-.94,1.4c-.31.53-.58,1-.82,1.53a5.42,5.42,0,0,0-.4,1c-.08.19-.2.51-.37,1s-.34.91-.5,1.4-.33,1-.49,1.41-.25.76-.31,1h.21c.33-.42.61-.77.82-1s.43-.56.67-.86a5.81,5.81,0,0,0,.52-.73c.11-.17.26-.42.46-.77s.32-.57.38-.65c.11-.31.26-.72.46-1.24s.38-1,.54-1.53.32-.94.44-1.32a3.5,3.5,0,0,0,.19-.65Z"/><path class="cls-2" d="M444.7,73.46v-1.3a10,10,0,0,1-.19-4.94,11.69,11.69,0,0,1,5.36-7.65A11.24,11.24,0,0,1,454.5,58h.75a2.7,2.7,0,0,1,1.53.4,3,3,0,0,1,1,1,4.43,4.43,0,0,1,.51,1.42,9.49,9.49,0,0,1,.14,1.59,9.31,9.31,0,0,1-.23,2.12c-.15.68-.32,1.37-.5,2.07s-.35,1.39-.5,2.07a9.54,9.54,0,0,0-.23,2.16v.25a3.43,3.43,0,0,1,.1.48,1.84,1.84,0,0,0,.11.48l.42,0,.41,0,.82,0a2.78,2.78,0,0,0,.82-.19l8-3.69.14,0,.15,0a1,1,0,0,1,.69.25.87.87,0,0,1,.27.67c0,.14,0,.27,0,.4a.57.57,0,0,1-.23.36,10.06,10.06,0,0,1-1.07.58c-.51.25-1.07.53-1.65.84l-1.66.88a8.49,8.49,0,0,1-1.11.54,8.24,8.24,0,0,1-1.3.61c-.47.18-1,.36-1.46.52a12.21,12.21,0,0,1-1.49.4,6.67,6.67,0,0,1-1.32.15A3.15,3.15,0,0,1,456,74a2,2,0,0,1-.88-.83,3.52,3.52,0,0,1-.4-1.26,6,6,0,0,1,0-1.53l-1.8,1.43a22.38,22.38,0,0,1-2,1.38,18,18,0,0,1-2.14,1.09,5.81,5.81,0,0,1-2.22.46,2.07,2.07,0,0,1-1.13-.32A1.67,1.67,0,0,1,444.7,73.46Zm2.26-.88a4.93,4.93,0,0,0,2.13-.57,13.69,13.69,0,0,0,2.31-1.4,17,17,0,0,0,2.05-1.78,11.78,11.78,0,0,0,1.42-1.7,10.45,10.45,0,0,1,.36-2.4,9,9,0,0,0,.31-2.37,1.29,1.29,0,0,0,0-.25c0-.11,0-.2,0-.25a2.39,2.39,0,0,0-.92-.55,5.3,5.3,0,0,0-1-.08h-.36a1,1,0,0,0-.36,0c-.16.14-.44.4-.83.78s-.81.78-1.24,1.23l-1.21,1.26-.78.79s-.08,0-.17.15l-.27.36c-.1.14-.18.27-.25.39a2.14,2.14,0,0,0-.15.32l-1,4.9Z"/><path class="cls-2" d="M465.91,73.88l1.42-8.38V64.33l.84-5.57a.58.58,0,0,1,.46-.19l.46,0a1.75,1.75,0,0,1,.77.23.67.67,0,0,1,.44.61v2.84a7.22,7.22,0,0,0,.59-.5c.28-.25.58-.52.9-.79l.9-.8a5.66,5.66,0,0,0,.55-.54,4.09,4.09,0,0,1,1.11-.72,3.05,3.05,0,0,1,1.23-.29,2.47,2.47,0,0,1,1.91.75,2.77,2.77,0,0,1,.69,1.93.23.23,0,0,1,0,.11s0,0,0,.1v.17l-1.59,7.16V72.2a7.72,7.72,0,0,0,2.7-.52,16,16,0,0,0,2.7-1.32,17.1,17.1,0,0,0,2.43-1.82,26.14,26.14,0,0,0,2-2h.16a.66.66,0,0,1,.49.19.65.65,0,0,1,.18.48,3.26,3.26,0,0,1-.6,1.82,8.44,8.44,0,0,1-1.55,1.7,14.87,14.87,0,0,1-2.18,1.5,21.23,21.23,0,0,1-2.43,1.22,17.21,17.21,0,0,1-2.32.79,7.79,7.79,0,0,1-1.93.3,2.3,2.3,0,0,1-1.26-.3,1.77,1.77,0,0,1-.69-.77,3.31,3.31,0,0,1-.29-1.07,12.22,12.22,0,0,1-.07-1.25v-.55l1.64-8.12V61.1a3,3,0,0,0-2,.88,9.63,9.63,0,0,0-1.76,2.14,20.78,20.78,0,0,0-1.34,2.55,20.28,20.28,0,0,0-.82,2.14c0,.2-.14.54-.25,1s-.22,1-.31,1.59-.19,1.09-.28,1.59-.14.87-.16,1.09a.36.36,0,0,1-.15.38,1.77,1.77,0,0,1-.44.19,2.24,2.24,0,0,1-.52.06H467a2.25,2.25,0,0,1-.76-.13c-.25-.08-.37-.29-.37-.63Z"/><path class="cls-2" d="M494.57,68.39c-.14.14-.4.38-.79.71l-1.24,1.07q-.65.57-1.23,1c-.4.32-.67.54-.84.65l-.48.27q-.4.23-.9.54c-.34.21-.68.41-1,.59l-.82.44-.71.36a1.47,1.47,0,0,1-.63.1,2.78,2.78,0,0,1-1.4-.44,1.36,1.36,0,0,1-.73-1.23V68l.58-3.06a13.78,13.78,0,0,1,1-2.86,6,6,0,0,1,1.47-1.85A5.9,5.9,0,0,1,489,59.09a29.7,29.7,0,0,1,2.91-.71l.55-.21L493,58h.59a2.47,2.47,0,0,1,1.19.29,5.79,5.79,0,0,1,1,.76l2.09-9a5.38,5.38,0,0,1,0-1.28,9.91,9.91,0,0,1,.32-1.66,5.15,5.15,0,0,1,.6-1.42,1.07,1.07,0,0,1,.88-.59,1.21,1.21,0,0,1,1,.46,1.49,1.49,0,0,1,.23,1.18l-2.26,13.69a17.73,17.73,0,0,0-1.11,3.6,19.1,19.1,0,0,0-.36,3.73,11.49,11.49,0,0,0,.13,1.76,4.93,4.93,0,0,0,.48,1.59,3,3,0,0,0,1,1.16,2.8,2.8,0,0,0,1.63.43,12.54,12.54,0,0,0,4.4-.81,13.07,13.07,0,0,0,3.86-2.24l.12,0a.24.24,0,0,1,.13,0,.86.86,0,0,1,.58.21c0,.05,0,.13,0,.25a1.49,1.49,0,0,1,0,.25,1.84,1.84,0,0,1-.55,1.25,5.71,5.71,0,0,1-1.4,1.09,11,11,0,0,1-1.89.88c-.68.25-1.37.48-2.05.67a13.19,13.19,0,0,1-1.9.42,9.62,9.62,0,0,1-1.39.13,5.57,5.57,0,0,1-2.45-.48,4.5,4.5,0,0,1-1.63-1.37,6.51,6.51,0,0,1-1-2,16.37,16.37,0,0,1-.5-2.49Zm-8.16-1.63c0,.16,0,.44-.07.84s-.08.81-.12,1.27-.09.9-.13,1.3-.08.71-.1.9,0,.2,0,.42,0,.36,0,.42a3.45,3.45,0,0,0,1.51-.48,12.63,12.63,0,0,0,1.93-1.26,25.8,25.8,0,0,0,2.05-1.76,22.48,22.48,0,0,0,1.87-2,13.75,13.75,0,0,0,1.36-1.9A3.42,3.42,0,0,0,495.2,63a1.07,1.07,0,0,0-.31-.59,5.38,5.38,0,0,0-.72-.71,6.75,6.75,0,0,0-.79-.59,1.35,1.35,0,0,0-.69-.25,2.92,2.92,0,0,0-2,.15,6.87,6.87,0,0,0-2.16,1.34,7.39,7.39,0,0,0-1.63,2.07A3.78,3.78,0,0,0,486.41,66.76Z"/></g></g></svg>