<svg xmlns="http://www.w3.org/2000/svg" viewBox="0 0 427.64 372.58"><defs><style>.cls-1,.cls-2{fill:#fff;}.cls-2{stroke:#fff;stroke-miterlimit:10;stroke-width:0.61px;}</style></defs><g id="圖層_2" data-name="圖層 2"><g id="圖層_1-2" data-name="圖層 1"><path class="cls-1" d="M255.12,115.61c4.27-4,.16-6.9-2.29-10.18-3.63,2.3-7.64,4.47-4.39,8.94C249.46,115.78,254.06,116.59,255.12,115.61Z"/><path class="cls-1" d="M231.12,143c2.86-3.82.17-6.41-3.06-8.43-3,2.53-6.8,5-2.95,9.11C226,144.62,230.24,144.18,231.12,143Z"/><path class="cls-1" d="M271.8,141.54c3-3.82.32-6.62-3-9.11-3.32,2.73-6.48,5.59-2.86,9.57C266.82,142.94,270.93,142.65,271.8,141.54Z"/><path class="cls-1" d="M254.85,155.4c.65.93,4.7,1,5.66,0,3.16-3.27,1.33-6.21-2.22-8.81C254.67,148.74,252.14,151.44,254.85,155.4Z"/><path class="cls-1" d="M150,200.65c-.1-1.34-2.18-2.54-3.38-3.8-1.26,1.6-3.3,3.09-3.53,4.83-.19,1.39,1.82,3.07,2.85,4.62l2-.08C148.73,204.36,150.14,202.45,150,200.65Z"/><path class="cls-1" d="M151,210.65c-1.55.62-2.54,2.67-3.76,4.11,1.21.92,2.53,2.68,3.61,2.55,1.6-.2,3-1.74,5.91-3.58C153.74,212.05,151.91,210.26,151,210.65Z"/><path class="cls-1" d="M156.4,205.67c0,1.06,1.71,2.09,2.66,3.13,1.14-1.06,3-2,3.21-3.23.2-1-1.43-2.45-3-4.8C157.8,203.15,156.38,204.42,156.4,205.67Z"/><path class="cls-1" d="M318.68,156.25c-1.8-6.41-5.12-12.38-7.42-18.67-6.29-17.23-15.36-32.94-26-47.78-5.9-8.25-12.61-15.93-18.49-24.2-3.75-5.28-6.49-11.27-10-16.76C250,38,242.63,27.5,236.13,16.48c-4.1-7-9.93-11.7-16.65-15.41-2.21-1.21-6.12-1.5-8.19-.33C206.22,3.6,201.1,7,197.22,11.21a209.25,209.25,0,0,0-16.47,21.31Q158.69,64,137.05,95.84c-3.86,5.69-6.92,11.92-10.26,18-4.9,8.87-10.32,17.52-14.4,26.75A281.64,281.64,0,0,0,99.85,174.4c-4.17,14.09-6,29-2.76,43.28,4.9,21.64,17.91,38.4,36.82,50,11.22,6.85,22.71,13.95,35,18.13,3.15,0,7.47,2.3,10.59,3.07,11.28,2.81,22.18,4.69,33.26,4.73a93.09,93.09,0,0,0,20.29-2.1,119.23,119.23,0,0,0,48.43-23.14c12.92-10.22,24.33-21.72,30.26-37.49,2.08-5.53,2.78-11.59,4.88-17.1C323.91,194.75,324.11,175.55,318.68,156.25Zm-124-111.72,6.42-1.73c-.67-2.33-1.27-4.42-2.25-7.81l7.28,2.68c.46-1.54.92-3.06,1.51-5.05l4.5,2.43L216,27.76c1.17,3.22,1.9,5.23,2.81,7.72l5.93-2.9c.3,2.19.55,3.93.84,6L233,36.12c-1.07,2.79-1.75,4.57-2.43,6.36,4.91,2.78,4.91,2.78,1.88,7.19l7.25,3.65L232,56.81l2.62,5.13-5.54,1.26L231,69.59l-7.09-2.2c-.53,4.53-2.57,5.79-6,2.5-1.15,2.82-2,4.84-3.45,8.49-1.47-3.41-2.3-5.36-2.55-5.94l-7.59-4.06-5.07,1.53c.55-2.31.91-3.84,1.39-5.85l-4.71-1.34,2.47-5-6.38-3.68C195.68,51.56,202.91,50.42,194.67,44.53Zm-33.24,61.78c5.75.42,11.47,1.2,17.21,1.7,6.89.6,8.09-.28,9.07-7.19a79.79,79.79,0,0,0,.45-8.73c-3.85-2.48-8.63-5-8.42-5.52,2.34-5.87,6.88-1.52,10.61-1.38.27-.55.55-1.09.82-1.64-2.1-1.18-4.08-2.78-6.33-3.44-5.44-1.61-11-3-13.11-9.06-.75-2.18-.5-4.71-.7-7.08l2.14-.35,2.77,7.88c1.2-1.71,2.08-3,3.39-4.82,2.13,4.24,1.34,10.49,8.73,9.35.58-1.07,1.43-2.67,2.27-4.22.63.18,1.29.27,1.29.39.31,9.36,6.07,13.71,14.25,16.5,2.24.76,3.69,3.83,5.51,5.83-2.22,1.47-4.27,3.6-6.71,4.25-3.39.9-4.38,2.38-4.77,5.85a170.41,170.41,0,0,1-3.73,19.18c-.36,1.59-1.34,3.58-2.64,4.33-8.32,4.82-6.16,12.93-6.93,20.25-.31,2.93,2.55,7.11-2.58,8.68-.81-3-2-6-2.32-9-.4-4-.1-8-.1-12.21-3.42-1.82-5.1-.76-5.25,2.87-.2,5-.11,10-.52,15-.1,1.31-1.59,2.51-2.45,3.76-.83-1.27-2.34-2.51-2.39-3.81-.26-6.11-.12-12.24-.12-18.88l-8.73-.92c0,6.49.14,12.38-.09,18.26-.06,1.58-1.23,3.12-1.9,4.68-1-1.51-2.79-2.94-3-4.55-.5-4.57-.19-9.22-.51-13.81-.15-2.24.45-5.84-3.45-5.08-1.12.22-2.33,3.34-2.38,5.16-.13,4.6.61,9.22.5,13.81,0,1.61-1.53,3.18-2.36,4.76-.92-1.41-2.52-2.77-2.64-4.24-.81-10.14-1.5-20.3-1.86-30.47C144.11,111.69,150.74,105.53,161.43,106.31Zm42.72,152.82c-6.62,1.64-13.25,4.95-18.44-2.7C192.33,250.38,199.85,251.37,204.15,259.13Zm-28.77-11.86L194.7,250C182.5,255.66,180.87,255.48,175.38,247.27Zm34.77,23.47-14.72-6.67C203.34,258.75,207.19,260.41,210.15,270.74ZM144.78,241.9c-5.05,1.26-8-1.91-10.63-5.25-3.37-4.27-2.45-9.85,2.77-19.34-4.71,0-9.35,0-14,0-6.08,0-8.65-4.56-10.67-9.08-2.31-5.19-.15-12,4.21-15.63,4.19-3.51,8.73-4.68,13.81-2l7.68,4.09c-4.3-8.54-8.5-15.74-2-22.7,4.26-4.53,9.8-8,16.52-5.38,7,2.76,9.79,8.25,7.47,17.65,6.12-5.51,10.81-11,18-8.19a15.83,15.83,0,0,1,7,6.27c5,8.13,2.13,13.69-9.49,20.92,2.51,5,5.37,9.78,7.16,14.91.64,1.83-.82,5-2.23,6.82-3.51,4.65-12,4-20.09-1.51C158.69,233,154.14,239.58,144.78,241.9Zm32.67,30.34c-1.68-2.95-4.21-5.72-4.85-8.88-1.39-6.9-1.69-14-7.41-19.24-.44-.4-.06-1.69-.06-3.76,12,8,12.93,19.46,13.88,30.92Zm3.11-2.35c-.73-3.95-1.28-7.93-1.84-11.9a12.08,12.08,0,0,1,.37-2.71c11.9,3.94,8.15,15.2,12.93,22.58C183.93,278,181.75,276.4,180.56,269.89Zm19.65,8.2c-6.88,1.54-10.76-4.27-10-14.92C198.4,266.25,200.44,269.3,200.21,278.09Zm3.89-1.23c-2.09-.89-3-4.59-4.41-7.08l1.5-1.36,9.86,4c.15.5.31,1,.46,1.5C209,275,205.85,277.59,204.1,276.86ZM209.34,144c-3.08-8.26-.29-17.15,6.94-23.25a10.29,10.29,0,0,0,3.11-5.19c4.37-18.89,21.06-28.9,40-23.23,7.77,2.33,11.86,9.27,13.31,17.48.4,2.25,1.16,5,2.75,6.4,11,9.78,12.77,26.31,2.78,37.23-5.85,6.4-12,13.21-22.15,13-1.25,0-3.13,2.28-3.69,3.87-.67,1.89-.38,4.18-.24,6.28.23,3.52-.86,5.37-4.8,5.39s-4.31-2.21-4-5.24a25.12,25.12,0,0,0,0-2.88c-.07-8.35-5.23-13.51-13.3-13.23C220.35,161,213.65,155.59,209.34,144Zm15.77,66.6c9.25-12.06,15.12-12.27,27.47-.88-5.31,3.21-11.15,5.72-15.69,9.77s-7.57,9.51-11.67,14.87C217.72,229.28,217.84,220.08,225.11,210.61Zm14.46,14.93,2.19-2.75,19.37,3.5-13,17.12C244.68,236.19,242.13,230.86,239.57,225.54Zm3.65,17.05c-.11-.61-12.6-4.41-14.26-5.17a.86.86,0,0,1-.5-.41.85.85,0,0,1,.13-.65c1.77-3.47,3.68-8.08,6.57-10.64C235.27,225.62,242.93,240.9,243.22,242.59Zm.31-23.33c11.1-8,14.52-7.34,17,3.55Zm3.06,41.17c-12.14-2.18-19.61-9.88-24.15-22.82,7.62,3.25,13.91,7,20.65,8.49s14,.63,20.91.8C262.42,259.79,259,262.66,246.59,260.43Zm18.15-19.64c-2.14,2.8-11.41,3-11.76,1.65l9.94-13.05S266.89,238,264.74,240.79Zm1.91,11.91c2.4-31.85,1.41-34.5-19.49-52.39,13-1.74,24.4,5.59,29.28,18.89S277.66,245.25,266.65,252.7Zm35.87-75.95c-1.77,2.57-4.94,4.18-7.14,5.89-.21,2.61.14,6.18-1,9.14-.5,1.27-4.93,2.43-6.29,1.59-2.66-1.67-4.41-4.78-6.32-7-2.74.19-6.33,1.37-9,.28-1.61-.66-3.27-5.93-2.33-7.19,2.08-2.76,5.79-4.29,8.1-5.83.59-3.19.54-7,2.15-10,.86-1.56,5.6-2.88,6.79-2,2.44,1.86,3.65,5.31,5.12,7.69,2.68.18,6.18-.16,9.17.92C302.74,170.65,303.51,175.32,302.52,176.75Z"/><path class="cls-2" d="M19.72,344.78c-.79.52-1.62,1-2.49,1.55a24.08,24.08,0,0,1-2.74,1.36,21.84,21.84,0,0,1-2.86,1A12.07,12.07,0,0,1,8.7,349a4.29,4.29,0,0,1-2.84-.92,6.81,6.81,0,0,1-1.75-2.27,15.23,15.23,0,0,1-1.05-2.91c-.26-1-.54-2-.83-2.82a2.14,2.14,0,0,0-.48-.83l-.63-.61a3.49,3.49,0,0,1-.57-.7,1.82,1.82,0,0,1-.24-1,1,1,0,0,1,.5-.81,1.54,1.54,0,0,1,.85-.37,1.12,1.12,0,0,1,.77.34c.25.24.54.49.89.77a6.94,6.94,0,0,0,1.18.74A3.38,3.38,0,0,0,6,338l1.32,0a4.49,4.49,0,0,0,1.26-.2c.27-.11.41-.21.44-.28a.28.28,0,0,0,0-.2.11.11,0,0,1,.07-.13,2,2,0,0,1,.57,0,6.44,6.44,0,0,1,.81.06,3,3,0,0,1,.85.26A1.82,1.82,0,0,1,12,338a1.25,1.25,0,0,1,.24.76c0,.53-.17.85-.52,1a4.6,4.6,0,0,1-1.18.21H9.4c-.55,0-1.14,0-1.75.05l-1.72.09c-.54,0-.93,0-1.16,0,.11.55.26,1.22.43,2a13.67,13.67,0,0,0,.7,2.19A5.28,5.28,0,0,0,7.11,346a2.66,2.66,0,0,0,1.9.72,10.82,10.82,0,0,0,2.66-.32,15,15,0,0,0,2.54-.88,21.5,21.5,0,0,0,2.38-1.24c.77-.47,1.53-.94,2.25-1.4a.75.75,0,0,0,.2-.26,1.2,1.2,0,0,0,0-.31,17.6,17.6,0,0,0-.32-3.28,17.45,17.45,0,0,1-.33-3.41c0-.76.06-1.73.17-2.93s.31-2.45.57-3.78a35.41,35.41,0,0,1,1.05-4,18,18,0,0,1,1.64-3.72,9.17,9.17,0,0,1,2.29-2.67,4.92,4.92,0,0,1,3.07-1,1.87,1.87,0,0,1,1.28.43,3.35,3.35,0,0,1,.84,1.19,8.43,8.43,0,0,1,.5,1.61c.11.59.2,1.17.26,1.75a15.74,15.74,0,0,1,.09,1.6v1.11a25.57,25.57,0,0,1-.29,3.76,26.23,26.23,0,0,1-.83,3.76,21.75,21.75,0,0,1-1.4,3.56,18.45,18.45,0,0,1-2,3.22,11.86,11.86,0,0,1-1.85,1.94,22.47,22.47,0,0,0-2,1.86,11.94,11.94,0,0,0,1.31,3.26A8.43,8.43,0,0,0,25.45,349a.72.72,0,0,1,.19.26,1.48,1.48,0,0,1,0,.35.65.65,0,0,1-.24.59,1.18,1.18,0,0,1-.63.15,2.56,2.56,0,0,1-1.2-.24,3.29,3.29,0,0,1-.83-.59,7.48,7.48,0,0,1-.72-.76,6.4,6.4,0,0,0-.79-.77Zm1-9.4v1.27c0,.38,0,.74.05,1.09s.06.71.09,1.09.07.8.13,1.27c0,.15.07.32.13.52s.1.31.13.31h.17a1.07,1.07,0,0,0,.31-.24l.59-.57.68-.7.57-.63A16.58,16.58,0,0,0,27,332.56a24.8,24.8,0,0,0,1-7.19v-.53c0-.26,0-.54,0-.85s0-.59,0-.85v-.53a3.07,3.07,0,0,1-.11-.5,6.26,6.26,0,0,0-.2-.77c-.09-.26-.16-.51-.22-.76s-.1-.42-.13-.5l-.11-.22a.56.56,0,0,1-.06-.22,3.69,3.69,0,0,0-2.28,1.07,9.12,9.12,0,0,0-1.7,2.38,15.74,15.74,0,0,0-1.21,3.2c-.3,1.16-.56,2.31-.76,3.45a31.18,31.18,0,0,0-.42,3.19C20.76,333.92,20.72,334.74,20.72,335.38Z"/><path class="cls-2" d="M31.19,344.34a15.39,15.39,0,0,1,1-4.24,15.17,15.17,0,0,1,1.88-3.45,9.66,9.66,0,0,1,2.18-2.23,2.09,2.09,0,0,1,1.95-.48l.37-.24a3.28,3.28,0,0,0,.26-.22.93.93,0,0,1,.26-.18,1.38,1.38,0,0,1,.46-.06,1.7,1.7,0,0,1,1.1.39,4.18,4.18,0,0,1,.85,1,4.71,4.71,0,0,1,.57,1.2,4,4,0,0,1,.19,1.16.81.81,0,0,1-.43.79,2.18,2.18,0,0,1-1,.22,1.11,1.11,0,0,1-.61-.16,1.83,1.83,0,0,1-.46-.37l-.41-.43a1.22,1.22,0,0,0-.57-.31h-.18l-.19.2a.88.88,0,0,0-.2.24c-.61.73-1.18,1.37-1.71,1.94a15,15,0,0,0-1.37,1.73,7.29,7.29,0,0,0-.92,1.88,7.73,7.73,0,0,0-.33,2.4v.4c0,.17,0,.35,0,.52a4.7,4.7,0,0,1,0,.53v.39a.94.94,0,0,0,.51.66c.27.14.53.29.76.43l.66,0,.61,0a16.41,16.41,0,0,0,3.72-.51,33.09,33.09,0,0,0,4.3-1.33,25.38,25.38,0,0,0,4.09-2,13.2,13.2,0,0,0,3.06-2.43,3.3,3.3,0,0,0,.46-1c.13-.4.28-.81.44-1.2a5.84,5.84,0,0,1,.54-1,1.05,1.05,0,0,1,.92-.43.67.67,0,0,1,.72.46,2.84,2.84,0,0,1,.16.89,4.9,4.9,0,0,1-.68,2.54,8.88,8.88,0,0,1-1.68,2.05,13.65,13.65,0,0,1-2.21,1.62,21.93,21.93,0,0,1-2.3,1.18c-.2.06-.65.22-1.33.48l-2.21.83-2.29.85c-.75.28-1.29.49-1.64.64l-1.18.33-.88.19a4.27,4.27,0,0,1-.81.11c-.28,0-.6,0-1,0a7.38,7.38,0,0,1-2.6-.39,3.74,3.74,0,0,1-1.64-1.16,4.84,4.84,0,0,1-.9-1.88A14,14,0,0,1,31.19,344.34Z"/><path class="cls-2" d="M62,340.49c-.06-.11-.15-.28-.28-.5s-.29-.33-.46-.33a2.64,2.64,0,0,0-1.69.72A11,11,0,0,0,58,342.09a14.9,14.9,0,0,0-1.32,2,6.6,6.6,0,0,0-.67,1.57,4.53,4.53,0,0,0-.18,1.36,9.89,9.89,0,0,1-.11,1.48,2.46,2.46,0,0,1-.48,1.18,1.55,1.55,0,0,1-1.29.49.91.91,0,0,1-.76-.25,1.26,1.26,0,0,1-.2-.8c.2-1.4.39-2.55.55-3.46s.3-1.7.43-2.38.27-1.36.4-2,.28-1.45.46-2.38.36-2.08.56-3.44.46-3.08.75-5.18c0-.43,0-1.05.08-1.85s.17-1.67.33-2.58a27.36,27.36,0,0,1,.64-2.8,13.25,13.25,0,0,1,1-2.56,6.44,6.44,0,0,1,1.38-1.86,2.61,2.61,0,0,1,1.83-.72,1.58,1.58,0,0,1,1.21.5,3.7,3.7,0,0,1,.7,1.21,5.4,5.4,0,0,1,.28,1.46c0,.51,0,.93,0,1.25a12.39,12.39,0,0,1-.17,2.07c-.12.66-.26,1.31-.44,2s-.36,1.31-.57,2-.38,1.3-.52,1.94l-2.8,5.34L57.53,339l.21.48a8.25,8.25,0,0,1,1.88-1.69,5.26,5.26,0,0,1,2.41-.67,1.39,1.39,0,0,1,1.11.39,3.47,3.47,0,0,1,.77,1.12,7.12,7.12,0,0,1,.46,1.37c.1.47.17.85.2,1.14s0,.45,0,.83-.06.82-.09,1.31-.05,1-.06,1.55a10.41,10.41,0,0,0,.06,1.51,3.2,3.2,0,0,0,.38,1.2,1,1,0,0,0,.76.59,20.51,20.51,0,0,0,3-.59A7.59,7.59,0,0,0,71,346.5a5.86,5.86,0,0,0,1.68-1.72,8,8,0,0,0,1-2.58,1,1,0,0,1,.87-.44.84.84,0,0,1,.86.48,2.76,2.76,0,0,1,.19,1.05,4.66,4.66,0,0,1-1.11,3.08,9,9,0,0,1-2.82,2.21,17.1,17.1,0,0,1-7.3,1.79,1.52,1.52,0,0,1-1.45-.72,4.14,4.14,0,0,1-.45-1.75,17.81,17.81,0,0,1,0-2.07,16,16,0,0,0,0-1.71c0-.14,0-.38,0-.72s-.07-.69-.11-1.07-.09-.74-.15-1.09A5.11,5.11,0,0,1,62,340.49ZM58.45,330v.44a5.24,5.24,0,0,0,0,.57c0,.17,0,.33,0,.48v.26l.22.22a2.49,2.49,0,0,0,.81-.92,9.37,9.37,0,0,0,.67-1.57c.21-.62.39-1.26.55-2s.3-1.36.41-2,.22-1.28.29-1.84a11.29,11.29,0,0,0,.11-1.35c0-.12,0-.34,0-.66a2.35,2.35,0,0,0-.07-.57l-.22-.43a5.83,5.83,0,0,0-1.62,2,10.69,10.69,0,0,0-.83,2.36,15,15,0,0,0-.3,2.54C58.46,328.38,58.45,329.21,58.45,330Z"/><path class="cls-2" d="M73.89,341.15a5.63,5.63,0,0,1,.27-.79c.14-.38.29-.78.46-1.22l.45-1.23c.15-.37.25-.64.31-.78a2.61,2.61,0,0,1,.5-.92,1.34,1.34,0,0,1,.9-.22.91.91,0,0,1,.92.48,2.83,2.83,0,0,1,.22,1.14,6.16,6.16,0,0,1-.33,2.07c-.22.63-.46,1.26-.72,1.88a19.83,19.83,0,0,0-.72,2,8.35,8.35,0,0,0-.33,2.47v.5a4.63,4.63,0,0,0,0,.65,1.59,1.59,0,0,0,.18.57.38.38,0,0,0,.35.24,6.11,6.11,0,0,0,2.29-.46A17.47,17.47,0,0,0,81,346.46a20.31,20.31,0,0,0,2.15-1.4c.68-.51,1.3-.95,1.85-1.33a1.78,1.78,0,0,0,.46-.44c.11-.14.2-.28.29-.41a1.37,1.37,0,0,1,.33-.35,1,1,0,0,1,.63-.16,1.7,1.7,0,0,1,.94.24.94.94,0,0,1,.37.86c0,.17,0,.33,0,.48a.56.56,0,0,1-.24.39,1,1,0,0,1-.33.35l-.59.46-.57.44a1.56,1.56,0,0,1-.39.24.66.66,0,0,0-.24.11.94.94,0,0,1-.24.11l-.11.11a.22.22,0,0,0-.07.1c-.61.47-1.27.94-2,1.43A20.68,20.68,0,0,1,80.93,349a16.34,16.34,0,0,1-2.42,1,8.26,8.26,0,0,1-2.47.39,2.2,2.2,0,0,1-1.6-.54,3.51,3.51,0,0,1-.81-1.38,7.12,7.12,0,0,1-.3-1.75c0-.61,0-1.16,0-1.66Zm2.1-11.5a1.36,1.36,0,0,1,.31-1,1.74,1.74,0,0,1,1.09-.26,2.21,2.21,0,0,1,.79.15.69.69,0,0,1,.39.72,1.4,1.4,0,0,1-.54,1.05,1.68,1.68,0,0,1-1.08.48.85.85,0,0,1-.74-.32A1.42,1.42,0,0,1,76,329.65Z"/><path class="cls-2" d="M91.27,371.66c-.15-.43-.27-.84-.37-1.22a5.69,5.69,0,0,1-.2-1.07c0-.34,0-.67-.07-1s0-.73,0-1.2v-.85c0-.19,0-.37,0-.53s0-.27,0-.32c.32-1.43.67-2.84,1.07-4.22a31.33,31.33,0,0,1,1.42-4,20.8,20.8,0,0,1,2-3.68,16.27,16.27,0,0,1,2.93-3.21c0-.15.07-.44.13-.87s.13-.89.22-1.36.15-.91.19-1.33.08-.74.11-.94,0-.2,0-.42,0-.35,0-.41h-.13c-1,.52-2,1-2.93,1.37a7.66,7.66,0,0,1-3.06.59,3.6,3.6,0,0,1-1.55-.3,2.82,2.82,0,0,1-1-.83,3.7,3.7,0,0,1-.59-1.23,7,7,0,0,1-.24-1.53l1-3.19c.26-.73.59-1.51,1-2.34a19.26,19.26,0,0,1,1.36-2.38,12.1,12.1,0,0,1,1.77-2.08,5.89,5.89,0,0,1,2.27-1.33,8.16,8.16,0,0,1,3.17.09,9.12,9.12,0,0,1,2.56,1,7.49,7.49,0,0,1,1.77,1.42,3.37,3.37,0,0,1,.81,1.34,5.24,5.24,0,0,1-.4,1.37c-.2.48-.43,1-.67,1.45s-.5.91-.75,1.31a8.06,8.06,0,0,0-.54,1,12.58,12.58,0,0,0-.61,1.66c-.18.59-.33,1.18-.46,1.8s-.24,1.23-.31,1.85a15.9,15.9,0,0,0-.11,1.73v.66a20.83,20.83,0,0,1,4.81-2.06,18.59,18.59,0,0,1,5.12-.74h.8a4.37,4.37,0,0,1,1,.11,1.93,1.93,0,0,1,.8.39,1,1,0,0,1,.35.81c0,.55-.3.83-.91.83l-.62-.06a2.38,2.38,0,0,1-.65-.16l-1,.18c-.5.08-1,.19-1.62.3l-1.62.35c-.49.12-.84.19-1,.22l-.5.2-.81.33-.85.32a1.75,1.75,0,0,0-.55.29,3.78,3.78,0,0,0-.8.33l-.9.48-.77.43c-.21.13-.32.21-.32.24l-.44.62-1,11.06a17.11,17.11,0,0,1-2,5.86,9.14,9.14,0,0,1-2,2.51,4.11,4.11,0,0,1-2.73,1,2.55,2.55,0,0,1-.77-.11A1.38,1.38,0,0,1,91.27,371.66Zm.43-27.76a2,2,0,0,0,.38.62.87.87,0,0,0,.67.26A6.69,6.69,0,0,0,96,344a9.23,9.23,0,0,0,2.51-2,14.78,14.78,0,0,0,1.9-2.66,24.43,24.43,0,0,0,1.38-2.89v-.17a3.7,3.7,0,0,0-1.6-1.86,2.59,2.59,0,0,0-1.88-.13,5.6,5.6,0,0,0-2,1.13,15.16,15.16,0,0,0-1.91,1.93,16.64,16.64,0,0,0-1.59,2.25,17,17,0,0,0-1.1,2.16,5.74,5.74,0,0,0-.43,1.6C91.24,343.79,91.38,344,91.7,343.9Zm1,23.48c0,.26.07.64.11,1.14a3.84,3.84,0,0,0,.29,1.22,2.91,2.91,0,0,0,1.53-1.2,10.55,10.55,0,0,0,1.18-2.21,21.45,21.45,0,0,0,.79-2.43c.2-.8.33-1.42.39-1.85.11-.67.21-1.31.28-1.91s.14-1.16.2-1.7.1-1.07.13-1.6,0-1.09,0-1.7c0-.09,0-.29,0-.59s0-.5,0-.59a19.13,19.13,0,0,0-2,3.1,24.26,24.26,0,0,0-1.33,3.22,32.09,32.09,0,0,0-.92,3.41C93.18,364.87,93,366.1,92.75,367.38Z"/><path class="cls-2" d="M110.22,346.92a2.67,2.67,0,0,1,0-.31q0-.25.09-.54c0-.19.05-.37.08-.53a2.4,2.4,0,0,0,0-.33v-.43l.61-2.76c.5-1,1-2,1.55-3a12.24,12.24,0,0,1,1.86-2.54,8.28,8.28,0,0,1,2.43-1.75,7.8,7.8,0,0,1,3.34-.65,2.71,2.71,0,0,1,1,.24,8.21,8.21,0,0,1,1.19.59,12.86,12.86,0,0,1,1.09.72,4.47,4.47,0,0,1,.76.68,16.11,16.11,0,0,1,2-.24l1-.05a4.25,4.25,0,0,0,.94-.15,14.62,14.62,0,0,0,1.55-.57,5.36,5.36,0,0,1,1.44-.22.86.86,0,0,1,.59.26.83.83,0,0,1,.29.62,1.12,1.12,0,0,1-.31.78,1.27,1.27,0,0,1-.74.44l-5.46,1.22-.49.22a11,11,0,0,1-1.05,4.51,12.83,12.83,0,0,1-2.66,3.76,12.61,12.61,0,0,1-3.85,2.55,11.34,11.34,0,0,1-4.55.94c-.11,0-.3,0-.56,0l-.53,0a2.27,2.27,0,0,1-1.33-1.44A5.87,5.87,0,0,1,110.22,346.92Zm2.79.87c0,.15.15.22.35.22h.44a7.38,7.38,0,0,0,3.24-.81,11.67,11.67,0,0,0,3-2.09,11.39,11.39,0,0,0,2.19-2.93,7.23,7.23,0,0,0,.85-3.3,16.54,16.54,0,0,1-2.8-.24,16,16,0,0,0-2.71-.25h0l-3.63,3.85a2,2,0,0,0-.48.83,5.6,5.6,0,0,0-.26,1.14c-.06.41-.11.82-.14,1.22s0,.78,0,1.1v.61A4.06,4.06,0,0,0,113,347.79Z"/><path class="cls-2" d="M168.44,344.78c-.79.52-1.62,1-2.49,1.55a24.79,24.79,0,0,1-2.73,1.36,22.48,22.48,0,0,1-2.87,1,12.07,12.07,0,0,1-2.93.37,4.29,4.29,0,0,1-2.84-.92,6.81,6.81,0,0,1-1.75-2.27,16.71,16.71,0,0,1-1.05-2.91c-.26-1-.54-2-.83-2.82a1.92,1.92,0,0,0-.48-.83c-.2-.2-.41-.41-.63-.61a3.49,3.49,0,0,1-.57-.7,1.82,1.82,0,0,1-.24-1,1,1,0,0,1,.5-.81,1.54,1.54,0,0,1,.85-.37,1.12,1.12,0,0,1,.77.34c.25.24.55.49.9.77a6.57,6.57,0,0,0,1.18.74,3.32,3.32,0,0,0,1.53.33l1.31,0a4.57,4.57,0,0,0,1.27-.2c.26-.11.4-.21.43-.28a.28.28,0,0,0,0-.2.11.11,0,0,1,.07-.13,2,2,0,0,1,.57,0,6.44,6.44,0,0,1,.81.06,3,3,0,0,1,.85.26,1.82,1.82,0,0,1,.63.53,1.25,1.25,0,0,1,.24.76c0,.53-.17.85-.52,1a4.6,4.6,0,0,1-1.18.21h-1.14c-.55,0-1.13,0-1.75.05l-1.72.09c-.54,0-.93,0-1.16,0,.11.55.26,1.22.44,2a12.71,12.71,0,0,0,.69,2.19,5.28,5.28,0,0,0,1.21,1.74,2.66,2.66,0,0,0,1.9.72,11,11,0,0,0,2.67-.32,15.16,15.16,0,0,0,2.53-.88,21.5,21.5,0,0,0,2.38-1.24c.78-.47,1.53-.94,2.26-1.4a.82.82,0,0,0,.19-.26,1.2,1.2,0,0,0,0-.31,17.6,17.6,0,0,0-.32-3.28,17.45,17.45,0,0,1-.33-3.41c0-.76.06-1.73.17-2.93s.31-2.45.57-3.78a35.41,35.41,0,0,1,1-4,18,18,0,0,1,1.64-3.72,9.19,9.19,0,0,1,2.3-2.67,4.87,4.87,0,0,1,3.06-1,1.92,1.92,0,0,1,1.29.43,3.46,3.46,0,0,1,.83,1.19,8.43,8.43,0,0,1,.5,1.61c.11.59.2,1.17.26,1.75a15.74,15.74,0,0,1,.09,1.6v1.11a25.57,25.57,0,0,1-.29,3.76,26.23,26.23,0,0,1-.83,3.76,21.75,21.75,0,0,1-1.4,3.56,19,19,0,0,1-2,3.22,12.34,12.34,0,0,1-1.86,1.94,22.47,22.47,0,0,0-2,1.86,12.27,12.27,0,0,0,1.31,3.26,8.56,8.56,0,0,0,2.32,2.47.72.72,0,0,1,.19.26,1.33,1.33,0,0,1,0,.35.65.65,0,0,1-.24.59,1.21,1.21,0,0,1-.64.15,2.59,2.59,0,0,1-1.2-.24,3.48,3.48,0,0,1-.83-.59,7.48,7.48,0,0,1-.72-.76A6.4,6.4,0,0,0,170,348Zm1-9.4v1.27c0,.38,0,.74,0,1.09s.06.71.09,1.09.07.8.13,1.27c0,.15.07.32.13.52s.1.31.13.31h.18a1.3,1.3,0,0,0,.3-.24c.18-.16.37-.35.59-.57s.45-.45.68-.7l.57-.63a16.58,16.58,0,0,0,3.47-6.23,24.8,24.8,0,0,0,1-7.19v-.53c0-.26,0-.54,0-.85s0-.59,0-.85v-.53a3.07,3.07,0,0,1-.11-.5,6.26,6.26,0,0,0-.2-.77c-.09-.26-.16-.51-.22-.76s-.1-.42-.13-.5-.06-.13-.11-.22a.56.56,0,0,1-.06-.22,3.69,3.69,0,0,0-2.28,1.07,9.12,9.12,0,0,0-1.7,2.38,15.16,15.16,0,0,0-1.2,3.2c-.31,1.16-.57,2.31-.77,3.45s-.34,2.2-.42,3.19S169.45,334.74,169.45,335.38Z"/><path class="cls-2" d="M179.91,344.34a15.39,15.39,0,0,1,1-4.24,15.17,15.17,0,0,1,1.88-3.45,9.49,9.49,0,0,1,2.19-2.23,2.07,2.07,0,0,1,1.94-.48l.37-.24a3.28,3.28,0,0,0,.26-.22.85.85,0,0,1,.27-.18,1.3,1.3,0,0,1,.46-.06,1.69,1.69,0,0,1,1.09.39,4.18,4.18,0,0,1,.85,1,4.71,4.71,0,0,1,.57,1.2A4,4,0,0,1,191,337a.81.81,0,0,1-.44.79,2.18,2.18,0,0,1-1,.22,1.13,1.13,0,0,1-.61-.16,1.83,1.83,0,0,1-.46-.37l-.41-.43a1.22,1.22,0,0,0-.57-.31h-.18l-.19.2a.88.88,0,0,0-.2.24c-.61.73-1.18,1.37-1.7,1.94a14.12,14.12,0,0,0-1.38,1.73,7.63,7.63,0,0,0-.92,1.88,7.73,7.73,0,0,0-.33,2.4v.4c0,.17,0,.35,0,.52a4.71,4.71,0,0,1,0,.53v.39a.9.9,0,0,0,.5.66c.28.14.53.29.76.43l.66,0,.61,0a16.41,16.41,0,0,0,3.72-.51,32.62,32.62,0,0,0,4.3-1.33,25.38,25.38,0,0,0,4.09-2,13.2,13.2,0,0,0,3.06-2.43,3.07,3.07,0,0,0,.46-1c.13-.4.28-.81.44-1.2a5.26,5.26,0,0,1,.55-1,1,1,0,0,1,.91-.43.67.67,0,0,1,.72.46,2.58,2.58,0,0,1,.16.89,4.9,4.9,0,0,1-.68,2.54,8.88,8.88,0,0,1-1.68,2.05,13.22,13.22,0,0,1-2.21,1.62,21.93,21.93,0,0,1-2.3,1.18c-.2.06-.65.22-1.33.48l-2.21.83-2.29.85c-.75.28-1.29.49-1.64.64l-1.18.33-.88.19a4.27,4.27,0,0,1-.81.11c-.27,0-.6,0-1,0a7.38,7.38,0,0,1-2.6-.39,3.74,3.74,0,0,1-1.64-1.16,4.84,4.84,0,0,1-.9-1.88A14,14,0,0,1,179.91,344.34Z"/><path class="cls-2" d="M210.75,340.49c-.06-.11-.15-.28-.28-.5a.56.56,0,0,0-.46-.33,2.64,2.64,0,0,0-1.69.72,12,12,0,0,0-1.61,1.71,13.9,13.9,0,0,0-1.31,2,6.73,6.73,0,0,0-.68,1.57,4.53,4.53,0,0,0-.18,1.36,8.73,8.73,0,0,1-.11,1.48,2.46,2.46,0,0,1-.48,1.18,1.53,1.53,0,0,1-1.29.49.91.91,0,0,1-.76-.25,1.26,1.26,0,0,1-.2-.8c.2-1.4.39-2.55.55-3.46s.3-1.7.43-2.38.27-1.36.4-2,.28-1.45.46-2.38.36-2.08.57-3.44.45-3.08.74-5.18c0-.43,0-1.05.09-1.85a23.25,23.25,0,0,1,.32-2.58c.16-.92.38-1.85.64-2.8a13.25,13.25,0,0,1,1-2.56,6.63,6.63,0,0,1,1.38-1.86,2.63,2.63,0,0,1,1.84-.72,1.58,1.58,0,0,1,1.2.5,3.53,3.53,0,0,1,.7,1.21,5.4,5.4,0,0,1,.28,1.46c0,.51,0,.93,0,1.25a11.42,11.42,0,0,1-.17,2.07c-.12.66-.26,1.31-.44,2s-.36,1.31-.57,2-.37,1.3-.52,1.94l-2.8,5.34L206.25,339l.22.48a7.85,7.85,0,0,1,1.88-1.69,5.18,5.18,0,0,1,2.4-.67,1.42,1.42,0,0,1,1.12.39,3.45,3.45,0,0,1,.76,1.12,7.12,7.12,0,0,1,.46,1.37c.1.47.17.85.2,1.14s0,.45,0,.83-.06.82-.09,1.31-.05,1-.06,1.55a10.41,10.41,0,0,0,.06,1.51,3.2,3.2,0,0,0,.38,1.2,1.05,1.05,0,0,0,.76.59,20.51,20.51,0,0,0,3-.59,7.59,7.59,0,0,0,2.34-1.05,5.86,5.86,0,0,0,1.68-1.72,8,8,0,0,0,1-2.58,1,1,0,0,1,.87-.44.83.83,0,0,1,.86.48,2.76,2.76,0,0,1,.19,1.05,4.66,4.66,0,0,1-1.11,3.08,8.81,8.81,0,0,1-2.82,2.21,17.1,17.1,0,0,1-7.3,1.79,1.52,1.52,0,0,1-1.45-.72,4.14,4.14,0,0,1-.45-1.75,17.81,17.81,0,0,1,0-2.07,16,16,0,0,0,0-1.71c0-.14,0-.38,0-.72s-.07-.69-.11-1.07-.09-.74-.15-1.09A5.11,5.11,0,0,1,210.75,340.49ZM207.17,330v.44a5.24,5.24,0,0,0,0,.57c0,.17,0,.33,0,.48v.26l.22.22a2.49,2.49,0,0,0,.81-.92,9.37,9.37,0,0,0,.67-1.57c.21-.62.39-1.26.55-2s.3-1.36.42-2,.21-1.28.28-1.84a11.29,11.29,0,0,0,.11-1.35c0-.12,0-.34,0-.66a2.35,2.35,0,0,0-.07-.57l-.22-.43a5.68,5.68,0,0,0-1.61,2,9.76,9.76,0,0,0-.83,2.36,14,14,0,0,0-.31,2.54C207.18,328.38,207.17,329.21,207.17,330Z"/><path class="cls-2" d="M222.62,341.15a5.2,5.2,0,0,1,.26-.79c.14-.38.3-.78.46-1.22s.31-.85.46-1.23.24-.64.3-.78a2.59,2.59,0,0,1,.51-.92,1.31,1.31,0,0,1,.89-.22.91.91,0,0,1,.92.48,2.67,2.67,0,0,1,.22,1.14,6.16,6.16,0,0,1-.33,2.07c-.22.63-.46,1.26-.72,1.88s-.5,1.3-.72,2a8.35,8.35,0,0,0-.33,2.47v.5a4.63,4.63,0,0,0,0,.65,1.59,1.59,0,0,0,.18.57.39.39,0,0,0,.35.24,6.08,6.08,0,0,0,2.29-.46,17.59,17.59,0,0,0,2.28-1.09,21.25,21.25,0,0,0,2.14-1.4c.68-.51,1.3-.95,1.86-1.33a2.17,2.17,0,0,0,.46-.44l.28-.41a1.37,1.37,0,0,1,.33-.35,1,1,0,0,1,.63-.16,1.7,1.7,0,0,1,.94.24.94.94,0,0,1,.37.86,3.7,3.7,0,0,1,0,.48.56.56,0,0,1-.24.39,1,1,0,0,1-.33.35l-.59.46-.56.44a1.77,1.77,0,0,1-.4.24.66.66,0,0,0-.24.11.94.94,0,0,1-.24.11l-.11.11a.18.18,0,0,0-.06.1c-.62.47-1.28.94-2,1.43a21.82,21.82,0,0,1-2.26,1.31,16.34,16.34,0,0,1-2.42,1,8.26,8.26,0,0,1-2.47.39,2.2,2.2,0,0,1-1.6-.54,3.51,3.51,0,0,1-.81-1.38,7.12,7.12,0,0,1-.3-1.75c0-.61-.05-1.16-.05-1.66Zm2.09-11.5a1.4,1.4,0,0,1,.31-1,1.74,1.74,0,0,1,1.09-.26,2.17,2.17,0,0,1,.79.15.69.69,0,0,1,.39.72,1.4,1.4,0,0,1-.54,1.05,1.65,1.65,0,0,1-1.07.48.86.86,0,0,1-.75-.32A1.42,1.42,0,0,1,224.71,329.65Z"/><path class="cls-2" d="M240,371.66c-.15-.43-.27-.84-.37-1.22a6.62,6.62,0,0,1-.2-1.07c0-.34,0-.67-.06-1s0-.73,0-1.2v-.85a4.33,4.33,0,0,1,0-.53c0-.16,0-.27,0-.32.32-1.43.68-2.84,1.07-4.22a32.93,32.93,0,0,1,1.42-4,20.8,20.8,0,0,1,2-3.68,16.27,16.27,0,0,1,2.93-3.21c0-.15.07-.44.13-.87s.13-.89.22-1.36.15-.91.2-1.33.08-.74.11-.94,0-.2,0-.42,0-.35,0-.41h-.13c-1,.52-2,1-2.93,1.37a7.66,7.66,0,0,1-3.06.59,3.6,3.6,0,0,1-1.55-.3,2.82,2.82,0,0,1-1-.83,3.7,3.7,0,0,1-.59-1.23,7,7,0,0,1-.24-1.53l1.05-3.19c.26-.73.59-1.51,1-2.34a19.26,19.26,0,0,1,1.36-2.38,12.1,12.1,0,0,1,1.77-2.08,5.89,5.89,0,0,1,2.27-1.33,8.15,8.15,0,0,1,3.17.09,9.12,9.12,0,0,1,2.56,1,7.49,7.49,0,0,1,1.77,1.42,3.37,3.37,0,0,1,.81,1.34,5.6,5.6,0,0,1-.39,1.37c-.21.48-.43,1-.68,1.45s-.5.91-.74,1.31a8.35,8.35,0,0,0-.55,1,14.18,14.18,0,0,0-.61,1.66c-.18.59-.33,1.18-.46,1.8s-.24,1.23-.31,1.85a15.9,15.9,0,0,0-.11,1.73v.66a20.83,20.83,0,0,1,4.81-2.06,18.65,18.65,0,0,1,5.12-.74h.81a4.35,4.35,0,0,1,1,.11,2,2,0,0,1,.81.39,1,1,0,0,1,.35.81c0,.55-.31.83-.92.83l-.61-.06a2.48,2.48,0,0,1-.66-.16l-1.05.18c-.5.08-1,.19-1.62.3l-1.61.35c-.5.12-.85.19-1.05.22l-.51.2-.81.33-.85.32a1.56,1.56,0,0,0-.54.29,3.63,3.63,0,0,0-.81.33l-.9.48c-.29.16-.55.3-.76.43s-.33.21-.33.24l-.44.62-1,11.06a17.11,17.11,0,0,1-2,5.86,9.14,9.14,0,0,1-2,2.51,4.11,4.11,0,0,1-2.73,1,2.55,2.55,0,0,1-.77-.11A1.38,1.38,0,0,1,240,371.66Zm.44-27.76a1.77,1.77,0,0,0,.37.62.88.88,0,0,0,.68.26,6.68,6.68,0,0,0,3.21-.77,9.08,9.08,0,0,0,2.51-2,14.83,14.83,0,0,0,1.91-2.66,26,26,0,0,0,1.37-2.89v-.17a3.69,3.69,0,0,0-1.59-1.86,2.59,2.59,0,0,0-1.88-.13,5.55,5.55,0,0,0-2,1.13,15.1,15.1,0,0,0-1.9,1.93,16.71,16.71,0,0,0-1.6,2.25,15.63,15.63,0,0,0-1.09,2.16,5.49,5.49,0,0,0-.44,1.6C240,343.79,240.11,344,240.43,343.9Zm1,23.48c0,.26.06.64.11,1.14a3.6,3.6,0,0,0,.28,1.22,2.91,2.91,0,0,0,1.53-1.2,10.11,10.11,0,0,0,1.18-2.21,21.45,21.45,0,0,0,.79-2.43c.2-.8.33-1.42.39-1.85.12-.67.21-1.31.28-1.91s.14-1.16.2-1.7.1-1.07.13-1.6,0-1.09,0-1.7c0-.09,0-.29,0-.59s0-.5,0-.59a19.84,19.84,0,0,0-2,3.1,25.68,25.68,0,0,0-1.33,3.22,32.09,32.09,0,0,0-.92,3.41C241.91,364.87,241.68,366.1,241.48,367.38Z"/><path class="cls-2" d="M258.94,346.92a2.67,2.67,0,0,1,0-.31q0-.25.09-.54c0-.19.06-.37.09-.53s0-.27,0-.33v-.43l.61-2.76c.5-1,1-2,1.55-3a12.24,12.24,0,0,1,1.86-2.54,8.28,8.28,0,0,1,2.43-1.75,7.83,7.83,0,0,1,3.34-.65,2.8,2.8,0,0,1,1,.24,8.66,8.66,0,0,1,1.18.59,12.86,12.86,0,0,1,1.09.72,4.47,4.47,0,0,1,.76.68,16.11,16.11,0,0,1,2-.24l1-.05a4.16,4.16,0,0,0,.94-.15,13.85,13.85,0,0,0,1.55-.57,5.38,5.38,0,0,1,1.45-.22.89.89,0,0,1,.59.26.85.85,0,0,1,.28.62,1.12,1.12,0,0,1-.31.78,1.27,1.27,0,0,1-.74.44l-5.46,1.22-.48.22a11,11,0,0,1-1.05,4.51,13.05,13.05,0,0,1-2.67,3.76,12.61,12.61,0,0,1-3.85,2.55,11.33,11.33,0,0,1-4.54.94c-.12,0-.31,0-.57,0l-.53,0a2.3,2.3,0,0,1-1.33-1.44A5.87,5.87,0,0,1,258.94,346.92Zm2.8.87c0,.15.14.22.34.22h.44a7.38,7.38,0,0,0,3.24-.81,11.67,11.67,0,0,0,3-2.09,11.39,11.39,0,0,0,2.19-2.93,7.11,7.11,0,0,0,.85-3.3,16.54,16.54,0,0,1-2.8-.24,16,16,0,0,0-2.71-.25h0l-3.63,3.85a2,2,0,0,0-.48.83,5.6,5.6,0,0,0-.26,1.14c-.06.41-.11.82-.13,1.22s-.05.78-.05,1.1v.61A2.91,2.91,0,0,0,261.74,347.79Z"/><path class="cls-2" d="M317.16,344.78c-.79.52-1.62,1-2.49,1.55a24.79,24.79,0,0,1-2.73,1.36,22.48,22.48,0,0,1-2.87,1,12.07,12.07,0,0,1-2.93.37,4.29,4.29,0,0,1-2.84-.92,6.81,6.81,0,0,1-1.75-2.27,16.71,16.71,0,0,1-1.05-2.91c-.26-1-.54-2-.83-2.82a1.92,1.92,0,0,0-.48-.83c-.2-.2-.41-.41-.63-.61a3.49,3.49,0,0,1-.57-.7,1.82,1.82,0,0,1-.24-1,1,1,0,0,1,.5-.81,1.54,1.54,0,0,1,.86-.37,1.11,1.11,0,0,1,.76.34c.25.24.55.49.9.77a6.57,6.57,0,0,0,1.18.74,3.32,3.32,0,0,0,1.53.33l1.31,0a4.57,4.57,0,0,0,1.27-.2c.26-.11.4-.21.43-.28a.36.36,0,0,0,0-.2.1.1,0,0,1,.06-.13,2,2,0,0,1,.57,0,6.44,6.44,0,0,1,.81.06,3,3,0,0,1,.85.26,2,2,0,0,1,.64.53,1.32,1.32,0,0,1,.24.76c0,.53-.18.85-.53,1a4.6,4.6,0,0,1-1.18.21h-1.14c-.55,0-1.13,0-1.75.05l-1.72.09c-.54,0-.93,0-1.16,0,.12.55.26,1.22.44,2a11.92,11.92,0,0,0,.7,2.19,5.11,5.11,0,0,0,1.2,1.74,2.66,2.66,0,0,0,1.9.72,11,11,0,0,0,2.67-.32,14.85,14.85,0,0,0,2.53-.88A21.5,21.5,0,0,0,314,344.3c.78-.47,1.53-.94,2.26-1.4a.82.82,0,0,0,.19-.26,1.09,1.09,0,0,0,0-.31,16.82,16.82,0,0,0-.33-3.28,17.45,17.45,0,0,1-.33-3.41c0-.76.06-1.73.17-2.93s.31-2.45.57-3.78a37.62,37.62,0,0,1,1.05-4,18.59,18.59,0,0,1,1.64-3.72,9.19,9.19,0,0,1,2.3-2.67,4.87,4.87,0,0,1,3.06-1,1.92,1.92,0,0,1,1.29.43,3.46,3.46,0,0,1,.83,1.19,7.77,7.77,0,0,1,.5,1.61c.12.59.2,1.17.26,1.75a15.74,15.74,0,0,1,.09,1.6v1.11a25.54,25.54,0,0,1-.28,3.76,26.25,26.25,0,0,1-.84,3.76,22.64,22.64,0,0,1-1.39,3.56,19.74,19.74,0,0,1-2,3.22,12.34,12.34,0,0,1-1.86,1.94,22.47,22.47,0,0,0-2,1.86,12.27,12.27,0,0,0,1.31,3.26,8.56,8.56,0,0,0,2.32,2.47.72.72,0,0,1,.19.26,1.33,1.33,0,0,1,0,.35.65.65,0,0,1-.24.59,1.21,1.21,0,0,1-.64.15,2.61,2.61,0,0,1-1.2-.24,3.48,3.48,0,0,1-.83-.59,7.48,7.48,0,0,1-.72-.76,6.4,6.4,0,0,0-.79-.77Zm1-9.4v1.27c0,.38,0,.74,0,1.09s.06.71.09,1.09.07.8.13,1.27c0,.15.07.32.13.52s.1.31.13.31h.18a1.1,1.1,0,0,0,.3-.24c.18-.16.37-.35.59-.57s.45-.45.68-.7l.57-.63a16.58,16.58,0,0,0,3.47-6.23,24.8,24.8,0,0,0,1-7.19v-.53c0-.26,0-.54,0-.85s0-.59,0-.85v-.53a3.07,3.07,0,0,1-.11-.5,6.26,6.26,0,0,0-.2-.77c-.09-.26-.16-.51-.22-.76s-.1-.42-.13-.5-.06-.13-.11-.22a.56.56,0,0,1-.06-.22,3.69,3.69,0,0,0-2.28,1.07,9.12,9.12,0,0,0-1.7,2.38,15.16,15.16,0,0,0-1.2,3.2c-.31,1.16-.56,2.31-.77,3.45a31,31,0,0,0-.41,3.19C318.2,333.92,318.17,334.74,318.17,335.38Z"/><path class="cls-2" d="M330.25,344.17a1.88,1.88,0,0,1-.74.19c-.27,0-.53,0-.79,0l-.79,0a2.23,2.23,0,0,0-.78.19c-.5.06-.82,0-1-.11a.51.51,0,0,1-.14-.54,2,2,0,0,1,.48-.79,4.22,4.22,0,0,1,.9-.74,3.57,3.57,0,0,1,1.09-.44.86.86,0,1,0,1.12-1.31,1,1,0,0,1,1.05-.57,3.26,3.26,0,0,1,.72.07.68.68,0,0,1,.5.37,14.46,14.46,0,0,0,1.75-1.34l2.25-1.92c.77-.66,1.48-1.24,2.12-1.75a3,3,0,0,1,1.31-.76,2.37,2.37,0,0,1,.35,0,1.62,1.62,0,0,1,.46.11,2.14,2.14,0,0,1,.4.19.4.4,0,0,1,.15.33v1.88c-.21.82-.4,1.58-.59,2.3s-.35,1.41-.48,2.1a20.21,20.21,0,0,0-.29,2.07c0,.7-.08,1.44-.08,2.23a6,6,0,0,0,1.68-.3,21.14,21.14,0,0,0,2-.75c.67-.29,1.3-.59,1.88-.89s1.05-.56,1.4-.77a2.87,2.87,0,0,0,.39-.3c.21-.18.42-.36.66-.55s.46-.36.68-.53.35-.26.41-.32a1.54,1.54,0,0,1,.44-.24,2.76,2.76,0,0,0,.39-.2.33.33,0,0,1,.33.11,2,2,0,0,1,.28.35,1.45,1.45,0,0,1,.2.39,1.8,1.8,0,0,1,.07.24,1.43,1.43,0,0,1-.35.88,5,5,0,0,1-.84.81c-.32.24-.64.48-1,.69a5.2,5.2,0,0,0-.76.59l-1.21.57c-.56.27-1.17.54-1.81.83l-1.82.83-1.2.57a1.81,1.81,0,0,1-.39.11,5.35,5.35,0,0,0-.66.2,5,5,0,0,1-.67.2,3.26,3.26,0,0,0-.42.1,1.12,1.12,0,0,0-.59.44l-.39.61a2,2,0,0,1-.48.53,1.22,1.22,0,0,1-.9.13,2.56,2.56,0,0,0-.37-.2,1.65,1.65,0,0,1-.42-.24,20.47,20.47,0,0,1-1.79-1.4c-.5-.43-.95-.86-1.36-1.29a14.11,14.11,0,0,1-1.15-1.37C331.13,345.33,330.72,344.78,330.25,344.17Zm2.75-1.75c.21.43.4.86.6,1.26a6.36,6.36,0,0,0,.67,1.16,4.24,4.24,0,0,0,.9.94,2.29,2.29,0,0,0,1.24.48c.06-.43.14-1,.22-1.57s.19-1.25.31-1.92.25-1.34.42-2a11.46,11.46,0,0,1,.54-1.73h-.44c-.46.32-.9.64-1.31,1l-1.13.86a10,10,0,0,0-.92.72l-.13.13a.24.24,0,0,1-.13.08,1.19,1.19,0,0,1-.4.31A3.69,3.69,0,0,0,333,342.42Zm4.9-4c-.09,0-.13.07-.13.2s0,.2.13.2.18-.07.18-.2S338,338.39,337.9,338.39Z"/><path class="cls-2" d="M347.93,342.42l.18-.18c.05-.26.17-.71.34-1.35s.37-1.34.57-2.08.4-1.44.59-2.08.33-1.07.42-1.31a8,8,0,0,1,.28-.76c.16-.4.34-.83.55-1.29s.41-.94.61-1.4.35-.82.44-1.05c.2-.41.52-.95.94-1.62a13.76,13.76,0,0,1,1.44-1.9,12.89,12.89,0,0,1,1.68-1.57,2.71,2.71,0,0,1,1.62-.68.91.91,0,0,1,.64.22,1.34,1.34,0,0,1,.35.5,2.91,2.91,0,0,1,.15.63,4.91,4.91,0,0,1,0,.62,16.71,16.71,0,0,1-.63,4.52,21.45,21.45,0,0,1-1.73,4.31,22.59,22.59,0,0,1-2.6,3.87,27.16,27.16,0,0,1-3.17,3.25,5.39,5.39,0,0,0-.11.53c0,.26-.08.45-.11.57v.08a2.07,2.07,0,0,0,.46,1.4,2.72,2.72,0,0,0,1.12.77,5.7,5.7,0,0,0,1.46.32,14.1,14.1,0,0,0,1.55.09,2.87,2.87,0,0,0,1.16-.39c.51-.26,1-.56,1.57-.9s1.08-.63,1.6-.89a3,3,0,0,1,1.18-.4.73.73,0,0,1,.61.27,1,1,0,0,1,.22.65c0,.44-.33.91-1,1.4A14.22,14.22,0,0,1,358,348c-.88.42-1.71.78-2.51,1.07a6.37,6.37,0,0,1-1.6.44,6.13,6.13,0,0,1-2.45,0,5.31,5.31,0,0,1-2-.83,5.25,5.25,0,0,1-1.37-1.45,4.29,4.29,0,0,1-.68-1.77Zm8.26-13c-.26,0-.56.21-.89.63a11.73,11.73,0,0,0-1,1.47c-.32.55-.6,1.08-.85,1.59a4.33,4.33,0,0,0-.41,1c-.09.2-.22.54-.4,1s-.35.95-.52,1.46l-.51,1.46c-.16.47-.26.81-.32,1h.22l.85-1.09c.22-.29.45-.59.7-.9a5.08,5.08,0,0,0,.54-.76q.18-.27.48-.81c.21-.37.34-.59.4-.68.11-.32.28-.75.48-1.29s.39-1.07.57-1.6.32-1,.46-1.37a4.21,4.21,0,0,0,.19-.68Z"/><path class="cls-2" d="M359.66,349v-1.36a10.52,10.52,0,0,1-.19-5.16,12.28,12.28,0,0,1,2-4.56,12.06,12.06,0,0,1,3.62-3.41,11.64,11.64,0,0,1,4.83-1.69h.79a2.87,2.87,0,0,1,1.6.42,3.11,3.11,0,0,1,1,1.07,4.87,4.87,0,0,1,.53,1.49,9.23,9.23,0,0,1,.15,1.66,10,10,0,0,1-.24,2.2c-.16.72-.34,1.44-.52,2.17s-.37,1.45-.53,2.16a10.34,10.34,0,0,0-.24,2.25v.27a2,2,0,0,1,.11.5,2.1,2.1,0,0,0,.11.5l.44,0,.43,0c.29,0,.58,0,.86,0a2.73,2.73,0,0,0,.85-.19l8.3-3.85.16,0a.5.5,0,0,1,.15,0,1,1,0,0,1,.72.26.9.9,0,0,1,.29.7,2.73,2.73,0,0,1,0,.41.52.52,0,0,1-.24.37,8.45,8.45,0,0,1-1.11.62c-.54.26-1.12.55-1.73.87l-1.72.92a12.43,12.43,0,0,1-1.16.57,10.11,10.11,0,0,1-1.36.63c-.49.19-1,.37-1.53.55a13.17,13.17,0,0,1-1.55.41,6.58,6.58,0,0,1-1.38.16,3.29,3.29,0,0,1-1.57-.33,2.18,2.18,0,0,1-.92-.88,4,4,0,0,1-.42-1.31,6.48,6.48,0,0,1,0-1.59l-1.88,1.48a20.09,20.09,0,0,1-2.1,1.45,18,18,0,0,1-2.23,1.13,5.87,5.87,0,0,1-2.31.48,2.24,2.24,0,0,1-1.18-.32A1.81,1.81,0,0,1,359.66,349Zm2.37-.92a5.19,5.19,0,0,0,2.22-.59,14.89,14.89,0,0,0,2.41-1.46,18.67,18.67,0,0,0,2.14-1.86,13.45,13.45,0,0,0,1.49-1.77,10.87,10.87,0,0,1,.37-2.52,9.25,9.25,0,0,0,.33-2.47c0-.06,0-.14,0-.26a1.7,1.7,0,0,1,0-.26,2.53,2.53,0,0,0-1-.57,4.86,4.86,0,0,0-1.05-.09h-.37a.93.93,0,0,0-.37.05,11.14,11.14,0,0,0-.87.81c-.41.39-.84.82-1.29,1.28l-1.27,1.32-.81.83s-.09,0-.18.15l-.28.37c-.1.15-.19.29-.26.42a1.87,1.87,0,0,0-.16.32l-1,5.12Z"/><path class="cls-2" d="M381.8,349.46l1.49-8.75v-1.22l.87-5.82a.64.64,0,0,1,.49-.19l.48,0a1.78,1.78,0,0,1,.8.25.71.71,0,0,1,.46.63v3c.12-.09.32-.26.62-.52s.6-.54.94-.83l.94-.83a5.32,5.32,0,0,0,.56-.57,4.64,4.64,0,0,1,1.16-.75,3.18,3.18,0,0,1,1.29-.3,2.54,2.54,0,0,1,2,.79,2.85,2.85,0,0,1,.72,2c0,.06,0,.09,0,.11a.19.19,0,0,0,0,.1v.18l-1.66,7.48v3.54a8,8,0,0,0,2.82-.55,16.7,16.7,0,0,0,5.35-3.28,23.59,23.59,0,0,0,2.06-2.08h.17a.71.71,0,0,1,.51.2.68.68,0,0,1,.19.5,3.4,3.4,0,0,1-.63,1.91,8.85,8.85,0,0,1-1.62,1.77,15.05,15.05,0,0,1-2.27,1.57A22.27,22.27,0,0,1,397,349a17.37,17.37,0,0,1-2.42.83,8.51,8.51,0,0,1-2,.31,2.46,2.46,0,0,1-1.31-.31,1.88,1.88,0,0,1-.72-.81,3.31,3.31,0,0,1-.3-1.11,11,11,0,0,1-.07-1.32v-.56l1.7-8.49v-1.44a3.11,3.11,0,0,0-2.07.92,9.74,9.74,0,0,0-1.84,2.23,21.28,21.28,0,0,0-1.4,2.67,19.7,19.7,0,0,0-.85,2.23c-.06.2-.15.56-.26,1.09s-.23,1.08-.33,1.66-.2,1.14-.28,1.66-.15.91-.18,1.14a.36.36,0,0,1-.15.39,1.6,1.6,0,0,1-.46.2,2.51,2.51,0,0,1-.55.06H383a2.36,2.36,0,0,1-.78-.13.59.59,0,0,1-.4-.65Z"/><path class="cls-2" d="M411.72,343.73c-.14.14-.42.39-.83.74l-1.29,1.12-1.29,1.09c-.4.33-.7.56-.87.68l-.5.28-.94.57c-.35.22-.71.42-1.07.61l-.86.46-.74.37a1.43,1.43,0,0,1-.66.11,2.82,2.82,0,0,1-1.46-.46,1.41,1.41,0,0,1-.76-1.29v-4.72l.61-3.19a14.07,14.07,0,0,1,1.09-3,6.29,6.29,0,0,1,1.53-1.93,6.37,6.37,0,0,1,2.21-1.16c.86-.26,1.87-.51,3-.74.05,0,.24-.1.56-.22a4.86,4.86,0,0,0,.57-.22h.61a2.54,2.54,0,0,1,1.25.31,5.77,5.77,0,0,1,1.07.79l2.19-9.36a4.85,4.85,0,0,1,0-1.33,10.75,10.75,0,0,1,.33-1.73,5.52,5.52,0,0,1,.63-1.49,1.1,1.1,0,0,1,.92-.61,1.24,1.24,0,0,1,1,.48,1.56,1.56,0,0,1,.24,1.23L416,335.42a19.5,19.5,0,0,0-1.15,3.76,19.89,19.89,0,0,0-.38,3.89,12.67,12.67,0,0,0,.14,1.84,5.11,5.11,0,0,0,.5,1.66,3.09,3.09,0,0,0,1,1.2,2.85,2.85,0,0,0,1.7.46,12.9,12.9,0,0,0,4.59-.85,13.35,13.35,0,0,0,4-2.34l.13,0a.28.28,0,0,1,.14,0,1,1,0,0,1,.61.21,1.53,1.53,0,0,0,0,.27c0,.11,0,.2,0,.26a1.89,1.89,0,0,1-.57,1.31,6.28,6.28,0,0,1-1.46,1.14,12.8,12.8,0,0,1-2,.92c-.71.26-1.43.49-2.14.7a14.67,14.67,0,0,1-2,.43,10.33,10.33,0,0,1-1.44.13,5.73,5.73,0,0,1-2.56-.5,4.61,4.61,0,0,1-1.71-1.42,6.62,6.62,0,0,1-1-2.12,16.36,16.36,0,0,1-.53-2.6ZM403.2,342a7.9,7.9,0,0,1-.07.88c0,.41-.08.85-.13,1.33s-.09.93-.13,1.36-.08.73-.11.94c0,.05,0,.2,0,.43s0,.38,0,.44a3.67,3.67,0,0,0,1.57-.5,14.22,14.22,0,0,0,2-1.31,28.25,28.25,0,0,0,2.15-1.84,25.88,25.88,0,0,0,1.94-2,13.93,13.93,0,0,0,1.42-2,3.54,3.54,0,0,0,.57-1.69,1.18,1.18,0,0,0-.33-.61,5.75,5.75,0,0,0-.74-.74,8.34,8.34,0,0,0-.83-.61,1.38,1.38,0,0,0-.72-.26,3.06,3.06,0,0,0-2.12.15,7,7,0,0,0-2.26,1.4,8.08,8.08,0,0,0-1.7,2.16A4,4,0,0,0,403.2,342Z"/></g></g></svg>