<svg xmlns="http://www.w3.org/2000/svg" viewBox="0 0 261.75 74"><defs><style>.cls-1{fill:#fe3837;}.cls-2{fill:#ffb521;}.cls-3{fill:#fff;}</style></defs><g id="圖層_2" data-name="圖層 2"><g id="圖層_1-2" data-name="圖層 1"><g id="roses"><g id="Group_11" data-name="Group 11"><path id="Path_86" data-name="Path 86" class="cls-1" d="M47,3c17.32,28.55,17.4,31.94,1.68,67.23,16-4.16,25.44-17.1,25.08-34.27S63,6.12,47,3Z"/><path id="Path_87" data-name="Path 87" class="cls-1" d="M48,60.15c-8.55-2.75-17.8-4.37-25.63-8.6S8.22,40.49,0,33.81C.74,51,7.1,63,21.32,70,35.91,77.24,41.19,75,48,60.15Z"/><path id="Path_88" data-name="Path 88" class="cls-1" d="M7.39,33.13c7-4.5,12.91-9.57,19.75-12.34s14.85-3.4,22.4-5C39.64-2,32.65-4,16.89,6.05,4.51,14,.65,24.39,7.39,33.13Z"/><path id="Path_89" data-name="Path 89" class="cls-1" d="M31.52,26.44,27.84,28.7c.84,7.06,1.7,14.12,2.84,23.69L52.87,38Z"/><path id="Path_90" data-name="Path 90" class="cls-1" d="M53.58,33.81c1.5-13.35-2.25-15.47-18.55-10.7Z"/><path id="Path_91" data-name="Path 91" class="cls-1" d="M47,3c16,3.14,26.41,15.92,26.76,33S64.63,66.05,48.66,70.21C64.39,34.92,64.3,31.53,47,3Z"/><path id="Path_92" data-name="Path 92" class="cls-1" d="M48,60.15C41.19,75,35.91,77.25,21.32,70,7.09,63,.74,51,0,33.81c8.22,6.68,14.59,13.52,22.39,17.74S39.47,57.4,48,60.15Z"/><path id="Path_93" data-name="Path 93" class="cls-1" d="M7.39,33.13C.65,24.39,4.51,14,16.89,6.05,32.64-4,39.63-2,49.53,15.82,42,17.39,34.1,18,27.13,20.78S14.39,28.63,7.39,33.13Z"/><path id="Path_94" data-name="Path 94" class="cls-1" d="M31.52,26.44,52.87,38,30.68,52.39c-1.15-9.57-2-16.63-2.84-23.69Z"/><path id="Path_95" data-name="Path 95" class="cls-1" d="M25.22,49.53c.12-.73-13-10-14.67-11.47a1,1,0,0,1-.41-.66,1,1,0,0,1,.41-.69c3.48-3.26,7.6-7.75,12-9.53C22.76,27.11,25.56,47.49,25.22,49.53Z"/><path id="Path_96" data-name="Path 96" class="cls-1" d="M53.58,33.81,35,23.11C51.34,18.34,55.08,20.46,53.58,33.81Z"/><path id="Path_97" data-name="Path 97" class="cls-1" d="M35,53,54.81,40.25s1.37,13.22-2.89,16S34.86,55,35,53Z"/></g><g id="Group_11-2" data-name="Group 11-2"><path id="Path_86-2" data-name="Path 86-2" class="cls-2" d="M141,3c17.32,28.55,17.4,31.94,1.68,67.23,16-4.16,25.44-17.1,25.08-34.27S157,6.12,141,3Z"/><path id="Path_87-2" data-name="Path 87-2" class="cls-2" d="M142,60.15c-8.55-2.75-17.8-4.37-25.63-8.6S102.22,40.49,94,33.81C94.74,51,101.1,63,115.32,70,129.91,77.24,135.19,75,142,60.15Z"/><path id="Path_88-2" data-name="Path 88-2" class="cls-2" d="M101.39,33.13c7-4.5,12.91-9.57,19.75-12.34s14.85-3.4,22.4-5C133.64-2,126.65-4,110.89,6.05,98.51,14,94.65,24.39,101.39,33.13Z"/><path id="Path_89-2" data-name="Path 89-2" class="cls-2" d="M125.52,26.44l-3.68,2.26c.84,7.06,1.7,14.12,2.84,23.69L146.87,38Z"/><path id="Path_90-2" data-name="Path 90-2" class="cls-2" d="M147.58,33.81c1.5-13.35-2.25-15.47-18.55-10.7Z"/><path id="Path_91-2" data-name="Path 91-2" class="cls-2" d="M141,3c16,3.14,26.41,15.92,26.76,33s-9.11,30.11-25.08,34.27C158.39,34.92,158.3,31.53,141,3Z"/><path id="Path_92-2" data-name="Path 92-2" class="cls-2" d="M142,60.15C135.19,75,129.91,77.25,115.32,70,101.09,63,94.74,51,94,33.81c8.22,6.68,14.59,13.52,22.39,17.74S133.47,57.4,142,60.15Z"/><path id="Path_93-2" data-name="Path 93-2" class="cls-2" d="M101.39,33.13c-6.74-8.74-2.88-19.15,9.5-27.08C126.64-4,133.63-2,143.53,15.82c-7.54,1.57-15.43,2.14-22.4,5S108.39,28.63,101.39,33.13Z"/><path id="Path_94-2" data-name="Path 94-2" class="cls-2" d="M125.52,26.44,146.87,38,124.68,52.39c-1.15-9.57-2-16.63-2.84-23.69Z"/><path id="Path_95-2" data-name="Path 95-2" class="cls-2" d="M119.22,49.53c.12-.73-13-10-14.67-11.47a1,1,0,0,1-.41-.66,1,1,0,0,1,.41-.69c3.48-3.26,7.6-7.75,12-9.53C116.76,27.11,119.56,47.49,119.22,49.53Z"/><path id="Path_96-2" data-name="Path 96-2" class="cls-2" d="M147.58,33.81,129,23.11C145.34,18.34,149.08,20.46,147.58,33.81Z"/><path id="Path_97-2" data-name="Path 97-2" class="cls-2" d="M129,53l19.77-12.76s1.37,13.22-2.89,16S128.86,55,129,53Z"/></g><g id="Group_11-3" data-name="Group 11-3"><path id="Path_86-3" data-name="Path 86-3" class="cls-3" d="M235,3c17.32,28.55,17.4,31.94,1.68,67.23,16-4.16,25.44-17.1,25.08-34.27S251,6.12,235,3Z"/><path id="Path_87-3" data-name="Path 87-3" class="cls-3" d="M236,60.15c-8.55-2.75-17.8-4.37-25.63-8.6S196.22,40.49,188,33.81C188.74,51,195.1,63,209.32,70,223.91,77.24,229.19,75,236,60.15Z"/><path id="Path_88-3" data-name="Path 88-3" class="cls-3" d="M195.39,33.13c7-4.5,12.91-9.57,19.75-12.34s14.85-3.4,22.4-5C227.64-2,220.65-4,204.89,6.05,192.51,14,188.65,24.39,195.39,33.13Z"/><path id="Path_89-3" data-name="Path 89-3" class="cls-3" d="M219.52,26.44l-3.68,2.26c.84,7.06,1.7,14.12,2.84,23.69L240.87,38Z"/><path id="Path_90-3" data-name="Path 90-3" class="cls-3" d="M241.58,33.81c1.5-13.35-2.25-15.47-18.55-10.7Z"/><path id="Path_91-3" data-name="Path 91-3" class="cls-3" d="M235,3c16,3.14,26.41,15.92,26.76,33s-9.11,30.11-25.08,34.27C252.39,34.92,252.3,31.53,235,3Z"/><path id="Path_92-3" data-name="Path 92-3" class="cls-3" d="M236,60.15C229.19,75,223.91,77.25,209.32,70,195.09,63,188.74,51,188,33.81c8.22,6.68,14.59,13.52,22.39,17.74S227.47,57.4,236,60.15Z"/><path id="Path_93-3" data-name="Path 93-3" class="cls-3" d="M195.39,33.13c-6.74-8.74-2.88-19.15,9.5-27.08C220.64-4,227.63-2,237.53,15.82c-7.54,1.57-15.43,2.14-22.4,5S202.39,28.63,195.39,33.13Z"/><path id="Path_94-3" data-name="Path 94-3" class="cls-3" d="M219.52,26.44,240.87,38,218.68,52.39c-1.15-9.57-2-16.63-2.84-23.69Z"/><path id="Path_95-3" data-name="Path 95-3" class="cls-3" d="M213.22,49.53c.12-.73-13-10-14.67-11.47a1,1,0,0,1-.41-.66,1,1,0,0,1,.41-.69c3.48-3.26,7.6-7.75,12-9.53C210.76,27.11,213.56,47.49,213.22,49.53Z"/><path id="Path_96-3" data-name="Path 96-3" class="cls-3" d="M241.58,33.81,223,23.11C239.34,18.34,243.08,20.46,241.58,33.81Z"/><path id="Path_97-3" data-name="Path 97-3" class="cls-3" d="M223,53l19.77-12.76s1.37,13.22-2.89,16S222.86,55,223,53Z"/></g></g></g></g></svg>